<svg xmlns="http://www.w3.org/2000/svg" viewBox="0 0 16 16" shape-rendering="geometricPrecision"><path d="M13.114 2.537h2.538L15.651 0h-.867v1.105c-1.204-.927-2.924-.863-4.016.227-1.187 1.188-1.162 3.119.035 4.317 1.201 1.198 3.131 1.224 4.319.037A2.996 2.996 0 0 0 16 3.558l-.859.001a2.137 2.137 0 0 1-.627 1.521c-.843.842-2.231.836-3.104-.036-.871-.872-.877-2.26-.035-3.105.729-.727 1.86-.818 2.721-.268h-.983l.001.866z" fill="#cb1800"/><g mask="url(#a)"><path d="M8.009 4.685c-.991-2.585-6.25-2.471-6.001 1.65.087 1.41 1.178 2.589 2.687 3.96 2.26 2.058 3.315 2.755 3.315 2.755s1.051-.697 3.314-2.755c1.505-1.371 2.599-2.55 2.683-3.96C14.254 2.214 9 2.1 8.009 4.685z"/></g></svg>