<svg xmlns="http://www.w3.org/2000/svg" viewBox="0 0 16 16" shape-rendering="geometricPrecision"><path d="M13.114 2.537h2.538L15.651 0h-.867v1.105c-1.204-.927-2.924-.863-4.016.227-1.187 1.188-1.162 3.119.035 4.317 1.201 1.198 3.131 1.224 4.319.037A2.996 2.996 0 0 0 16 3.558l-.859.001a2.137 2.137 0 0 1-.627 1.521c-.843.842-2.231.836-3.104-.036-.871-.872-.877-2.26-.035-3.105.729-.727 1.86-.818 2.721-.268h-.983l.001.866z" fill="#cb1800"/><g mask="url(#a)"><path d="M8 5.495a3 3 0 1 0 .002 6.002A3 3 0 0 0 8 5.495zm0 5.394a2.397 2.397 0 0 1-2.393-2.392A2.398 2.398 0 0 1 8 6.102a2.398 2.398 0 0 1 2.393 2.394A2.396 2.396 0 0 1 8 10.889z"/><path d="M7.558 6.475v1.861l-1.153.671.456.798 1.608-.933h.01l-.001-2.397z"/><path d="M6.799 3.47 6.5 1.979h-4L2.2 3.47H.999v10h14v-10h-8.2zm7.201 9H2v-8h12v8z"/></g></svg>