<svg xmlns="http://www.w3.org/2000/svg" viewBox="0 0 16 16" shape-rendering="geometricPrecision"><path d="M13.114 2.537h2.538L15.651 0h-.867v1.105c-1.204-.927-2.924-.863-4.016.227-1.187 1.188-1.162 3.119.035 4.317 1.201 1.198 3.131 1.224 4.319.037A2.996 2.996 0 0 0 16 3.558l-.859.001a2.137 2.137 0 0 1-.627 1.521c-.843.842-2.231.836-3.104-.036-.871-.872-.877-2.26-.035-3.105.729-.727 1.86-.818 2.721-.268h-.983l.001.866z" fill="#cb1800"/><g mask="url(#a)"><path d="M8.291 3.837H6.674v3.414h1.711c.636 0 1.125-.149 1.469-.449.344-.3.516-.728.516-1.285-.001-1.12-.693-1.68-2.079-1.68z"/><path d="M8 0a8 8 0 1 0 0 16A8 8 0 0 0 8 0zm3.51 7.243a2.724 2.724 0 0 1-1.305 1.066c-.552.222-1.344.333-2.375.333H6.674v4.734h-1.57V2.446h3.461c1.042 0 1.872.281 2.492.844s.93 1.317.93 2.266c-.001.635-.16 1.198-.477 1.687z"/></g></svg>