<svg xmlns="http://www.w3.org/2000/svg" viewBox="0 0 16 16" shape-rendering="geometricPrecision" fill="#cb1800"><path d="m13.848-.04-.736.735.821.821h-.234l-.156.008A3.722 3.722 0 0 0 9.98 5.235v.237h1.126v-.237c0-.691.27-1.343.759-1.833a2.579 2.579 0 0 1 1.833-.759h.3l-.886.887.735.734L16 2.111 13.848-.04z"/><g mask="url(#a)"><path d="M13.31 2.085H2.777v8.227H13.31V2.085zm-.786 7.441h-8.96V2.871h8.96v6.655zm.79 1.234H2.686l-1.675 3.155h13.978z"/><path d="M4.331 3.569h1.245v.786H4.331z"/></g></svg>