<svg xmlns="http://www.w3.org/2000/svg" viewBox="0 0 16 16" shape-rendering="geometricPrecision" fill="#fff"><path d="M13.114 2.537h2.538L15.651 0h-.867v1.105c-1.204-.927-2.924-.863-4.016.227-1.187 1.188-1.162 3.119.035 4.317 1.201 1.198 3.131 1.224 4.319.037A2.996 2.996 0 0 0 16 3.558l-.859.001a2.137 2.137 0 0 1-.627 1.521c-.843.842-2.231.836-3.104-.036-.871-.872-.877-2.26-.035-3.105.729-.727 1.86-.818 2.721-.268h-.983l.001.866z" fill="#cb1800"/><g mask="url(#a)"><path d="M10.201 4.508a2.698 2.698 0 0 1 2.711 2.645l.019.766.744.181a1.715 1.715 0 0 1 1.311 1.672v.057a1.724 1.724 0 0 1-1.714 1.665H3.035A2.025 2.025 0 0 1 1.013 9.47a2.025 2.025 0 0 1 2.384-1.991l1.365.245-.198-1.374a1.087 1.087 0 0 1 1.074-1.238c.337 0 .65.154.858.423l.783 1.012.793-1.004a2.694 2.694 0 0 1 2.129-1.035m0-1a3.706 3.706 0 0 0-2.915 1.415 2.085 2.085 0 0 0-3.713 1.571 3.023 3.023 0 0 0-3.56 2.975 3.023 3.023 0 0 0 3.022 3.024h10.237a2.72 2.72 0 0 0 2.714-2.721l-.001-.001c0-1.28-.884-2.354-2.075-2.644a3.71 3.71 0 0 0-3.709-3.619z"/></g></svg>