<svg xmlns="http://www.w3.org/2000/svg" viewBox="0 0 16 16" shape-rendering="geometricPrecision" fill="#fff"><path d="M13.114 2.537h2.538L15.651 0h-.867v1.105c-1.204-.927-2.924-.863-4.016.227-1.187 1.188-1.162 3.119.035 4.317 1.201 1.198 3.131 1.224 4.319.037A2.996 2.996 0 0 0 16 3.558l-.859.001a2.137 2.137 0 0 1-.627 1.521c-.843.842-2.231.836-3.104-.036-.871-.872-.877-2.26-.035-3.105.729-.727 1.86-.818 2.721-.268h-.983l.001.866z" fill="#cb1800"/><g mask="url(#a)"><path d="M6.655 8.121c0 .521-.208.992-.54 1.345h3.925a1.956 1.956 0 0 1-.54-1.345c0-.668.337-1.259.849-1.613a1.524 1.524 0 0 0-1.173-.561H6.974c-.472 0-.889.221-1.169.56.513.354.85.944.85 1.614z"/><circle cx="8.078" cy="3.606" r="1.587"/><circle cx="4.691" cy="8.121" r="1.588"/><path d="M5.79 10.462H3.587a1.53 1.53 0 0 0-1.525 1.53v1.988H7.32v-1.988c0-.841-.689-1.53-1.53-1.53z"/><circle cx="11.464" cy="8.121" r="1.588"/><path d="M12.562 10.462H10.36a1.53 1.53 0 0 0-1.525 1.53v1.988h5.258v-1.988c0-.841-.689-1.53-1.531-1.53z"/></g></svg>