<svg xmlns="http://www.w3.org/2000/svg" viewBox="0 0 16 16" shape-rendering="geometricPrecision" fill="#fff"><path d="M13.114 2.537h2.538L15.651 0h-.867v1.105c-1.204-.927-2.924-.863-4.016.227-1.187 1.188-1.162 3.119.035 4.317 1.201 1.198 3.131 1.224 4.319.037A2.996 2.996 0 0 0 16 3.558l-.859.001a2.137 2.137 0 0 1-.627 1.521c-.843.842-2.231.836-3.104-.036-.871-.872-.877-2.26-.035-3.105.729-.727 1.86-.818 2.721-.268h-.983l.001.866z" fill="#cb1800"/><g mask="url(#a)"><path d="M11.231 3.39c.003-.045.008-.09.008-.137A3.24 3.24 0 0 0 7.999.012a3.234 3.234 0 0 0-3.031 2.104l1.31.401a1.872 1.872 0 1 1 3.024 2.078c-.584.621-1.028.621-2.174 1.236-1.828.982-2.273 2.51-2.37 3.412v6.745h6.483v-12.6h-.011v.002zm-.812 10.615-1.02 1.023-1.452-1.453-1.452 1.454-1.023-1.024 1.453-1.453-1.452-1.451 1.022-1.022 1.451 1.452 1.453-1.452 1.02 1.022-1.452 1.451 1.452 1.453z"/></g></svg>