<svg xmlns="http://www.w3.org/2000/svg" viewBox="0 0 16 16" shape-rendering="geometricPrecision" fill="#6e6e6e"><path d="m11.686 6.423.6-.513-.675-.269zM14.245.038a.714.714 0 0 0-.927.393l-.213.531 1.326.532.214-.532h-.001a.714.714 0 0 0-.399-.924zM11.527 4.9l1.433-3.573 1.325.532-1.433 3.572z" fill="#cb1800"/><g mask="url(#a)"><path d="M12.127 5.803 9.186 8.742c.373.336.612.818.612 1.359a1.837 1.837 0 1 1-3.674 0c0-.561.256-1.056.652-1.393L3.834 5.765a5.972 5.972 0 0 0-1.864 4.337 5.99 5.99 0 1 0 11.982 0 5.971 5.971 0 0 0-1.825-4.299z"/><path d="M4.004 0 1.929 2.076l6.068 6.073 6.075-6.073L11.998 0 8.001 3.995 4.004 0z"/></g></svg>