<svg xmlns="http://www.w3.org/2000/svg" viewBox="0 0 16 16" shape-rendering="geometricPrecision" fill="#6e6e6e"><path d="m11.686 6.423.6-.513-.675-.269zM14.245.038a.714.714 0 0 0-.927.393l-.213.531 1.326.532.214-.532h-.001a.714.714 0 0 0-.399-.924zM11.527 4.9l1.433-3.573 1.325.532-1.433 3.572z" fill="#cb1800"/><path mask="url(#a)" d="M7.993 3.184A9.037 9.037 0 0 0 0 8.001a9.044 9.044 0 0 0 15.986 0 9.042 9.042 0 0 0-7.993-4.817zm-.82 8.199L4.121 8.331l1.342-1.344 1.709 1.708 3.265-3.265 1.345 1.344-4.609 4.609z"/></svg>