<svg xmlns="http://www.w3.org/2000/svg" viewBox="0 0 16 16" shape-rendering="geometricPrecision" fill="#24437c"><path d="m11.686 6.423.6-.513-.675-.269zM14.245.038a.714.714 0 0 0-.927.393l-.213.531 1.326.532.214-.532h-.001a.714.714 0 0 0-.399-.924zM11.527 4.9l1.433-3.573 1.325.532-1.433 3.572z" fill="#cb1800"/><g mask="url(#a)"><path d="M3.032-.012v1.056h10.329v9.226h1.073V-.012zM8.98 15.293l2.525-2.325H8.98z"/><path d="M1.566 15.97h5.971v-4.44h4.773V2.088H1.566V15.97zM2.94 3.326h8.116v6.725h-4.79v4.601H2.94V3.326z"/></g></svg>