<svg xmlns="http://www.w3.org/2000/svg" viewBox="0 0 16 16" shape-rendering="geometricPrecision" fill="#24437c"><path d="m11.686 6.423.6-.513-.675-.269zM14.245.038a.714.714 0 0 0-.927.393l-.213.531 1.326.532.214-.532h-.001a.714.714 0 0 0-.399-.924zM11.527 4.9l1.433-3.573 1.325.532-1.433 3.572z" fill="#cb1800"/><g mask="url(#a)"><path d="M13.684 5.576h2.312L7.998 1 0 5.576h2.312v8.023H1.194v1.316h13.61v-1.316h-1.12V5.576zm-2.432 8.023H9.215V5.576h2.036v8.023zM4.745 5.576h2.037v8.023H4.745V5.576z"/></g></svg>