<svg viewBox="0 0 54 54" xmlns="http://www.w3.org/2000/svg"><g fill="#000000"><path d="m27 8c10.5 0 19 8.5 19 19s-8.5 19-19 19-19-8.6-19-19 8.5-19 19-19m0-5c-13.3 0-24 10.7-24 24s10.7 24 24 24 24-10.7 24-24-10.7-24-24-24z"/><circle cx="27" cy="15" r="4"/><path d="m38.2 19.1c-.6-.9-1.7-1.1-2.7-.8l-5.8 2.1c-.8.4-1.8.6-2.7.6h-.2c-.9 0-1.9-.2-2.8-.5l-5.8-2.1c-1-.4-2.1-.1-2.7.8-.8 1.2-.2 2.8 1.1 3.3l7.4 2.7c.3.1.5.4.5.7v3.7c0 .3-.1.6-.2.9l-4.5 7.9c-.5.9-.4 2.1.3 2.8 1.1 1 2.7.7 3.4-.5l3.5-6.1 3.6 6.2c.6 1 1.9 1.4 3 .8 1-.6 1.4-2 .8-3.1l-4.6-7.9c-.2-.3-.2-.6-.2-.9v-3.8c0-.3.2-.6.5-.7l7.2-2.6c1.2-.6 1.8-2.2.9-3.5z"/></g></svg>
