<svg xmlns="http://www.w3.org/2000/svg" viewBox="0 0 64 64"><path fill="none" d="M0 0h64v64H0z"/><path d="M18 4v49h21.71c1.87 0 3.67-.75 4.99-2.09l6.29-6.39A6.99 6.99 0 0 0 53 39.61V4H18Zm24.5 43.99v-5.5h5.41l-5.41 5.5Zm6.89-12.5c0 1.93-1.57 3.5-3.5 3.5H39v6.89c0 1.93-1.57 3.5-3.5 3.5H21.61V7.61h27.78V35.5ZM10 49h3v3h-3zm0-6h3v3h-3zm0-6h3v3h-3zm0-6h3v3h-3zm0-6h3v3h-3zm0-6h3v3h-3zm3 36h-3v5h5v-3h-2v-2zm-3-44v5h3v-2h2v-3h-5zm8 46h3v3h-3zm6 0h3v3h-3zm6 0h3v3h-3zm6 0h3v3h-3zm8 0h-2v3h5v-5h-3v2z"/></svg>