<svg width="16" height="16" xmlns="http://www.w3.org/2000/svg" viewBox="0 0 54 54"><path d="M3 45.94h42v-30H3Zm3-27h36v24H6Z"/><path d="M30 10v-.06a3 3 0 0 0-3-3h-9a3 3 0 0 0-3 3V10H9v2.91h39V40h3V10Z"/><path d="M23.5 21.47A9.5 9.5 0 1 0 33 31a9.5 9.5 0 0 0-9.5-9.53Zm.68 7c.66 0 1.35-.09 2-.17.05.62.09 1.28.11 2h-2.11Zm0-1.35v-3.7a7.52 7.52 0 0 1 1.17.2 24.75 24.75 0 0 1 .7 3.34c-.63.04-1.26.14-1.87.17Zm-1.35 0c-.6 0-1.23-.08-1.86-.16a22.11 22.11 0 0 1 .7-3.33 6.25 6.25 0 0 1 1.16-.2Zm0 1.36v1.81h-2.12c0-.71.06-1.37.11-2 .67.1 1.35.16 2.01.19Zm-3.47 1.81H16a7.21 7.21 0 0 1 .77-2.69c.68.15 1.66.34 2.75.52-.1.67-.14 1.39-.16 2.17Zm0 1.36c0 .82.06 1.59.12 2.3-1.06.17-2 .36-2.7.51a7.57 7.57 0 0 1-.78-2.81Zm1.35 0h2.12v2c-.66 0-1.34.09-2 .17-.06-.71-.1-1.42-.12-2.17ZM22.83 35v3.56a6.69 6.69 0 0 1-1.2-.21 23.35 23.35 0 0 1-.63-3.24c.59-.11 1.22-.11 1.83-.11Zm1.35 0c.6 0 1.24.08 1.87.16a21.19 21.19 0 0 1-.65 3.17 6.11 6.11 0 0 1-1.22.22Zm0-1.36v-2h2.13c0 .76 0 1.47-.11 2.13-.68-.08-1.37-.14-2.02-.17Zm3.48-2H31a7.5 7.5 0 0 1-.83 2.82c-.67-.15-1.62-.34-2.67-.5.11-.7.15-1.48.16-2.31Zm0-1.36c0-.77-.06-1.49-.12-2.17 1.09-.17 2.06-.37 2.74-.52a7.45 7.45 0 0 1 .72 2.7Zm1.86-3.91c-.6.13-1.33.27-2.14.4a25.57 25.57 0 0 0-.47-2.57 7.82 7.82 0 0 1 2.61 2.18Zm-9.41-2.17c-.16.66-.33 1.53-.48 2.57-.8-.13-1.54-.27-2.14-.39a7.58 7.58 0 0 1 2.62-2.18Zm-2.54 11.48c.59-.12 1.3-.26 2.07-.38.13 1 .29 1.78.44 2.42a7.63 7.63 0 0 1-2.51-2.04Zm9.39 2c.15-.63.3-1.43.43-2.39.75.13 1.45.26 2 .38A7.72 7.72 0 0 1 27 37.7Z"/></svg>