<svg xmlns="http://www.w3.org/2000/svg" viewBox="0 0 54 54"><path d="M17.59 30A2.58 2.58 0 1 0 15 27.46 2.57 2.57 0 0 0 17.59 30zm1.17 1.26h-2.35a2.48 2.48 0 0 0-2.47 2.48V37h7.31v-3.26a2.49 2.49 0 0 0-2.49-2.48zm11.65 1.83a2.58 2.58 0 1 0-2.58-2.57 2.57 2.57 0 0 0 2.58 2.57zm1.17 1.22h-2.35a2.48 2.48 0 0 0-2.47 2.48V40h7.3v-3.21a2.49 2.49 0 0 0-2.48-2.48zm-8.29-7.12a2.58 2.58 0 1 0-2.57-2.57 2.58 2.58 0 0 0 2.57 2.57z"/><path d="M26.94 34.12v-3.23a2.49 2.49 0 0 0-2.48-2.48h-2.35a2.48 2.48 0 0 0-2.46 2.39 3.08 3.08 0 0 1 2.21 2.94v.38z"/><path d="M3 45.94h42v-30H3zm3-27h36v24H6z"/><path d="M30 10v-.06a3 3 0 0 0-3-3h-9a3 3 0 0 0-3 3V10H9v2.91h39V40h3V10z"/></svg>