<?xml version="1.0" encoding="UTF-8" standalone="no"?>
<!DOCTYPE svg PUBLIC "-//W3C//DTD SVG 1.1//EN" "http://www.w3.org/Graphics/SVG/1.1/DTD/svg11.dtd">
<svg width="100%" height="100%" viewBox="0 0 16 16" version="1.1" xmlns="http://www.w3.org/2000/svg" xmlns:xlink="http://www.w3.org/1999/xlink" xml:space="preserve" style="fill-rule:evenodd;clip-rule:evenodd;stroke-linejoin:round;stroke-miterlimit:2;">
    <g transform="matrix(1.0976,0,0,1.0976,-0.780776,-0.780776)">
        <path d="M7.25,5.75C7.25,6.164 6.914,6.5 6.5,6.5C6.086,6.5 5.75,6.164 5.75,5.75C5.75,5.336 6.086,5 6.5,5C6.914,5 7.25,5.336 7.25,5.75ZM9.25,5.75C9.25,6.164 8.914,6.5 8.5,6.5C8.086,6.5 7.75,6.164 7.75,5.75C7.75,5.336 8.086,5 8.5,5C8.914,5 9.25,5.336 9.25,5.75ZM11.25,5.75C11.25,6.164 10.914,6.5 10.5,6.5C10.086,6.5 9.75,6.164 9.75,5.75C9.75,5.336 10.086,5 10.5,5C10.914,5 11.25,5.336 11.25,5.75ZM13.25,5.75C13.25,6.164 12.914,6.5 12.5,6.5C12.086,6.5 11.75,6.164 11.75,5.75C11.75,5.336 12.086,5 12.5,5C12.914,5 13.25,5.336 13.25,5.75ZM6.5,11C6.914,11 7.25,10.664 7.25,10.25C7.25,9.836 6.914,9.5 6.5,9.5C6.086,9.5 5.75,9.836 5.75,10.25C5.75,10.664 6.086,11 6.5,11ZM8.5,11C8.914,11 9.25,10.664 9.25,10.25C9.25,9.836 8.914,9.5 8.5,9.5C8.086,9.5 7.75,9.836 7.75,10.25C7.75,10.664 8.086,11 8.5,11ZM10.5,11C10.914,11 11.25,10.664 11.25,10.25C11.25,9.836 10.914,9.5 10.5,9.5C10.086,9.5 9.75,9.836 9.75,10.25C9.75,10.664 10.086,11 10.5,11ZM12.5,11C12.914,11 13.25,10.664 13.25,10.25C13.25,9.836 12.914,9.5 12.5,9.5C12.086,9.5 11.75,9.836 11.75,10.25C11.75,10.664 12.086,11 12.5,11Z" style="fill-rule:nonzero;"/>
    </g>
    <g transform="matrix(1.0976,0,0,1.0976,-0.780776,-0.780776)">
        <path d="M1,5.5C1,4.119 2.119,3 3.5,3L12.5,3C13.881,3 15,4.119 15,5.5L15,10.5C15,11.881 13.881,13 12.5,13L3.5,13C2.119,13 1,11.881 1,10.5L1,5.5ZM3.5,4C2.672,4 2,4.672 2,5.5L2,7.5L4,7.5L4,4L3.5,4ZM5,4L5,7.5L14,7.5L14,5.5C14,4.672 13.328,4 12.5,4L5,4ZM4,8.5L2,8.5L2,10.5C2,11.328 2.672,12 3.5,12L4,12L4,8.5ZM5,12L12.5,12C13.328,12 14,11.328 14,10.5L14,8.5L5,8.5L5,12Z" style="fill-rule:nonzero;"/>
    </g>
</svg>
