<svg width="16" height="16" xmlns="http://www.w3.org/2000/svg" viewBox="0 0 54 54"><path d="M51 30.43A3.42 3.42 0 0 0 47.57 27a3.36 3.36 0 0 0-2.91 1.73H28.71v-5.68a3.39 3.39 0 0 0 1.72-2.91A3.44 3.44 0 0 0 27 16.71a3.36 3.36 0 0 0-2.9 1.72h-5.69V9.34a3.36 3.36 0 0 0 1.73-2.91 3.43 3.43 0 1 0-6.85 0A3.38 3.38 0 0 0 15 9.32v9.11H9.33a3.38 3.38 0 0 0-2.9-1.72 3.43 3.43 0 0 0 0 6.86 3.39 3.39 0 0 0 2.9-1.71H15v5.68a3.38 3.38 0 0 0-1.69 2.89 3.43 3.43 0 0 0 3.42 3.43 3.38 3.38 0 0 0 2.9-1.7h5.68v12.51a3.38 3.38 0 0 0-1.72 2.9 3.43 3.43 0 0 0 6.86 0 3.38 3.38 0 0 0-1.72-2.9V32.16H39v9.07a3.36 3.36 0 0 0-1.73 2.91 3.43 3.43 0 1 0 6.85 0 3.37 3.37 0 0 0-1.7-2.89v-9.09h2.24a3.37 3.37 0 0 0 2.89 1.7A3.43 3.43 0 0 0 51 30.43Zm-25.71-1.7h-5.66a3.29 3.29 0 0 0-1.22-1.21v-5.66h5.69a3.39 3.39 0 0 0 1.19 1.19Z"/><circle cx="35.57" cy="11.57" r="5.14"/></svg>