<?xml version="1.0" encoding="UTF-8"?><svg id="b" xmlns="http://www.w3.org/2000/svg" viewBox="0 0 64 64"><defs><style>.f{fill:none;}.g{fill:#000000;}</style></defs><g id="c"><rect class="f" width="64" height="64"/></g><g id="d"><g id="e"><g><path class="g" d="m5.41,56.59v-13.19h53.19v13.19H5.41Zm33.19-.19h19.81v-12.81h-19.81v12.81Z"/><path class="g" d="m37.19,44.81v10.38H6.81v-10.38h30.38m22.81-2.81H4v16h56v-16h0Zm-20,13v-10h17v10h-17Z"/></g><path class="g" d="m47.24,25.13l-.93-.39c-1.13-.44-1.93-1.55-1.93-2.84s.8-2.39,1.93-2.84l.93-.4s0,0,0,0h0c.34-.14.5-.53.36-.87h0s0,0,0-.01l-.68-1.64-1.11-2.7c-.03-.08-.09-.16-.15-.22-.18-.19-.47-.25-.72-.14h0s0,0,0,0l-.93.38c-1.11.49-2.44.28-3.35-.64-.9-.91-1.11-2.26-.63-3.38l.39-.94c.14-.34-.02-.73-.36-.87l-4.32-1.8c-.34-.14-.73.01-.86.36l-.4.94c-.44,1.13-1.54,1.94-2.82,1.94s-2.38-.8-2.81-1.93l-.4-.94c-.14-.34-.53-.49-.87-.36l-4.32,1.81c-.34.14-.5.53-.36.87l.38.94c.49,1.11.28,2.46-.63,3.38-.91.91-2.24,1.12-3.36.63h0s-.93-.39-.93-.39c-.34-.13-.73.03-.87.37l-1.79,4.34c-.14.34.03.74.36.88l.93.4c1.13.44,1.93,1.55,1.93,2.84s-.8,2.39-1.93,2.83l-.93.41c-.34.13-.5.53-.36.87l1.79,4.35c.14.34.53.51.86.36l.94-.39c1.11-.49,2.44-.28,3.35.63.91.92,1.12,2.26.63,3.38h0l-.39.94c-.14.34.02.73.36.87l4.32,1.8c.34.14.73-.02.87-.36l.39-.94c.44-1.14,1.53-1.94,2.82-1.94,1.28,0,2.38.81,2.82,1.93l.4.95c.14.34.53.5.87.36l4.32-1.8c.34-.14.5-.53.36-.87l-.39-.94h0c-.48-1.12-.27-2.46.63-3.38.91-.92,2.25-1.12,3.35-.64h0l.93.39c.34.14.73-.02.87-.36l1.79-4.35c.14-.34-.02-.73-.35-.87Zm-13.4,2.09c-2.92,1.22-6.28-.18-7.48-3.12-1.21-2.94.18-6.32,3.1-7.53,2.92-1.22,6.28.18,7.48,3.12,1.21,2.95-.18,6.31-3.1,7.53Z"/></g></g></svg>