<svg xmlns="http://www.w3.org/2000/svg" viewBox="0 0 64 64"><path fill="none" d="M0 0h64v64H0z"/><path d="M5.41 56.59V43.4H58.6v13.19H5.41Zm33.19-.19h19.81V43.59H38.6V56.4Z"/><path d="M37.19 44.81v10.38H6.81V44.81h30.38M60 42H4v16h56V42ZM40 55V45h17v10H40Zm7.24-29.87-.93-.39c-1.13-.44-1.93-1.55-1.93-2.84s.8-2.39 1.93-2.84l.93-.4c.34-.14.5-.53.36-.87s0 0 0-.01l-.68-1.64-1.11-2.7a.662.662 0 0 0-.15-.22.64.64 0 0 0-.72-.14l-.93.38c-1.11.49-2.44.28-3.35-.64-.9-.91-1.11-2.26-.63-3.38l.39-.94a.666.666 0 0 0-.36-.87l-4.32-1.8a.643.643 0 0 0-.86.36l-.4.94c-.44 1.13-1.54 1.94-2.82 1.94s-2.38-.8-2.81-1.93l-.4-.94a.674.674 0 0 0-.87-.36l-4.32 1.81c-.34.14-.5.53-.36.87l.38.94c.49 1.11.28 2.46-.63 3.38-.91.91-2.24 1.12-3.36.63s-.93-.39-.93-.39a.68.68 0 0 0-.87.37l-1.79 4.34c-.14.34.03.74.36.88l.93.4c1.13.44 1.93 1.55 1.93 2.84s-.8 2.39-1.93 2.83l-.93.41c-.34.13-.5.53-.36.87l1.79 4.35c.14.34.53.51.86.36l.94-.39c1.11-.49 2.44-.28 3.35.63.91.92 1.12 2.26.63 3.38l-.39.94c-.14.34.02.73.36.87l4.32 1.8c.34.14.73-.02.87-.36l.39-.94a3.014 3.014 0 0 1 2.82-1.94c1.28 0 2.38.81 2.82 1.93l.4.95c.14.34.53.5.87.36l4.32-1.8c.34-.14.5-.53.36-.87l-.39-.94a3.09 3.09 0 0 1 .63-3.38c.91-.92 2.25-1.12 3.35-.64l.93.39c.34.14.73-.02.87-.36l1.79-4.35a.67.67 0 0 0-.35-.87Zm-13.4 2.09c-2.92 1.22-6.28-.18-7.48-3.12-1.21-2.94.18-6.32 3.1-7.53 2.92-1.22 6.28.18 7.48 3.12 1.21 2.95-.18 6.31-3.1 7.53Z"/></svg>