<svg width="16" height="16" xmlns="http://www.w3.org/2000/svg" viewBox="0 0 54 54"><path d="M19 10a5 5 0 1 1-5 5 5 5 0 0 1 5-5m0-5a10 10 0 1 0 10 10A10 10 0 0 0 19 5Zm11 39H8v-8a3 3 0 0 1 3-3h11.86L26 28H11a8 8 0 0 0-8 8v13h32v-5Z"/><path d="M48.35 5.68a5.4 5.4 0 0 0-7.22 1.87L40.25 9l-1.33 2.21L27 31.1l.13 9.9 9.05-4.78 11.91-19.89 1.32-2.21.88-1.47a5 5 0 0 0-1.94-6.97ZM34.26 34.3l-1.66.88-2.91-1.62v-1.79L41.21 12.5l4.59 2.55Zm8.28-24 .88-1.48A2.71 2.71 0 0 1 47 7.89a2.5 2.5 0 0 1 1 3.48l-.88 1.48Z"/></svg>