<?xml version="1.0" encoding="UTF-8"?><svg id="b" xmlns="http://www.w3.org/2000/svg" viewBox="0 0 64 64"><defs><style>.f{fill:none;}.g{fill:#000000;}</style></defs><g id="c"><rect class="f" width="64" height="64"/></g><g id="d"><g id="e"><polygon class="g" points="60.01 8.23 60 8.23 60 4 55.77 4 55.77 3.99 55.76 4 54 4 32 4 38 10 49.76 10 18.38 41.38 22.62 45.62 54 14.24 54 26 60 32 60 10 60 8.24 60.01 8.23"/><polygon class="g" points="46 56 8 56 8 18 36 18 40 14 4 14 4 60 50 60 50 24 46 28 46 56"/></g></g></svg>