<?xml version="1.0" encoding="UTF-8"?><svg id="b" xmlns="http://www.w3.org/2000/svg" viewBox="0 0 64 64"><defs><style>.f{fill:none;}.g{fill:#000000;}</style></defs><g id="c"><rect class="f" width="64" height="64"/></g><g id="d"><g id="e"><path class="g" d="m60,14c0-4.42-3.58-8-8-8s-8,3.58-8,8c0,3.9,2.8,7.15,6.5,7.85v7.49l-9.52,8.72c-1.89-2.13-4.51-3.59-7.48-3.96v-12.25c3.7-.7,6.5-3.95,6.5-7.85,0-4.42-3.58-8-8-8s-8,3.58-8,8c0,3.91,2.8,7.15,6.5,7.85v12.25c-2.97.37-5.6,1.83-7.48,3.96l-9.52-8.72v-7.49c3.7-.7,6.5-3.95,6.5-7.85,0-4.42-3.58-8-8-8S4,9.58,4,14c0,3.91,2.8,7.15,6.5,7.85v8.81l10.81,9.91c-.83,1.63-1.31,3.47-1.31,5.43,0,6.63,5.37,12,12,12s12-5.37,12-12c0-1.96-.48-3.8-1.31-5.43l10.81-9.91v-8.8c3.7-.7,6.5-3.95,6.5-7.85Zm-53,0c0-2.76,2.24-5,5-5s5,2.24,5,5-2.24,5-5,5-5-2.24-5-5Zm20,0c0-2.76,2.24-5,5-5s5,2.24,5,5-2.24,5-5,5-5-2.24-5-5Zm5,39c-3.86,0-7-3.14-7-7s3.14-7,7-7,7,3.14,7,7-3.14,7-7,7Zm20-34c-2.76,0-5-2.24-5-5s2.24-5,5-5,5,2.24,5,5-2.24,5-5,5Z"/></g></g></svg>