<svg viewBox="0 0 16 16" xmlns="http://www.w3.org/2000/svg" xml:space="preserve" fill-rule="evenodd" clip-rule="evenodd" stroke-linejoin="round" stroke-miterlimit="2"><path d="M13.713 12.449 8.67 7.405l-.77-.769-2.2 2.2.77.769 5.812 5.812.768-.77 1.432-1.43-.77-.768zm-5.087-2.017L7.015 8.82l.87-.87 1.611 1.61-.87.871zM3.497 8.784l-.467 1.252-1.252.466 1.252.468.467 1.252.468-1.252 1.252-.468-1.252-.466-.468-1.252zm1.688-3.31.66-1.767 1.766-.66-1.766-.659-.66-1.766-.66 1.766-1.766.66 1.766.66.66 1.766zm5.209.814.433-1.16 1.159-.433-1.159-.433-.433-1.159-.433 1.159-1.159.433 1.16.433.432 1.16z" fill-rule="nonzero"/></svg>