<svg xmlns="http://www.w3.org/2000/svg" viewBox="0 0 16 16" shape-rendering="geometricPrecision" fill="#fff"><path d="m11.686 6.423.6-.513-.675-.269zM14.245.038a.714.714 0 0 0-.927.393l-.213.531 1.326.532.214-.532h-.001a.714.714 0 0 0-.399-.924zM11.527 4.9l1.433-3.573 1.325.532-1.433 3.572z" fill="#cb1800"/><g mask="url(#a)"><path d="M1.811-.001v16h12.378v-16H1.811zM8.03 1.245a1.55 1.55 0 1 1 .003 3.101 1.55 1.55 0 0 1-.003-3.101zm3.055 13.548h-6.17V13.26h1.526V7.082H4.919V5.931h4.64v7.329h1.526v1.533z"/></g></svg>