<svg xmlns="http://www.w3.org/2000/svg" viewBox="0 0 16 16" shape-rendering="geometricPrecision" fill="#fff"><path d="m11.686 6.423.6-.513-.675-.269zM14.245.038a.714.714 0 0 0-.927.393l-.213.531 1.326.532.214-.532h-.001a.714.714 0 0 0-.399-.924zM11.527 4.9l1.433-3.573 1.325.532-1.433 3.572z" fill="#cb1800"/><g mask="url(#a)"><path d="M2.271.963v13.971H13.73V.963H2.271zm5.745 1.633a2.664 2.664 0 0 1 2.665 2.665 2.66 2.66 0 0 1-2.665 2.666 2.665 2.665 0 1 1 0-5.331zm4.533 11.497H3.484v-2.996a2.308 2.308 0 0 1 2.301-2.306h4.457a2.315 2.315 0 0 1 2.308 2.306v2.996z"/></g></svg>