<svg xmlns="http://www.w3.org/2000/svg" viewBox="0 0 16 16" shape-rendering="geometricPrecision" fill="#24437c"><path fill="#cb1800" d="M13.928 3.94 16 2.435h-2.561L12.648 0l-.791 2.435H9.295l2.072 1.505-.79 2.437 2.071-1.506 2.071 1.506z"/><g mask="url(#a)"><path d="M14.479 9.852V8.649h-2.566V1.632H6.599L3.896 4.124v4.525H1.569v1.202H.966v4.518h14.069V9.852h-.556zM6.645 2.73v1.403H5.121L6.645 2.73zM4.635 5h2.88V2.321h3.604v8.377H4.635V5zm8.237 6.546a.711.711 0 1 1 0-1.422.711.711 0 0 1 0 1.422z"/><path d="M5.624 5.738h4.57v.866h-4.57zm0 1.625h4.57v.866h-4.57z"/></g></svg>