<svg xmlns="http://www.w3.org/2000/svg" viewBox="0 0 16 16" shape-rendering="geometricPrecision" fill="#ffad00"><path d="m16 4.656-1.722-1.721L16 1.214 14.789.001l-1.723 1.721L11.344.001l-1.212 1.212 1.722 1.721-1.724 1.722 1.215 1.214 1.722-1.723 1.722 1.723z" fill="#cb1800"/><path mask="url(#a)" d="m7.394 4.755-.816-1.923h-3.78l-.816 1.923H.861V14h14.278V4.755H7.394zm-1.226 8.237-.081-.852.736.293-.655.559zm1.272-1.08-1.443-.579L7.556 7.44 9 8.019l-1.56 3.893zm1.952-4.87-.233.58-1.444-.58.232-.578a.778.778 0 0 1 1.445.578z"/></svg>