<svg xmlns="http://www.w3.org/2000/svg" viewBox="0 0 16 16" shape-rendering="geometricPrecision" fill="#ffad00"><path d="m16 4.656-1.722-1.721L16 1.214 14.789.001l-1.723 1.721L11.344.001l-1.212 1.212 1.722 1.721-1.724 1.722 1.215 1.214 1.722-1.723 1.722 1.723z" fill="#cb1800"/><g mask="url(#a)"><path d="M7.999.97a7.03 7.03 0 0 0 0 14.06 7.03 7.03 0 1 0 0-14.06zm0 12.638a5.616 5.616 0 0 1-5.607-5.605 5.616 5.616 0 0 1 5.607-5.611 5.617 5.617 0 0 1 5.609 5.611 5.615 5.615 0 0 1-5.609 5.605z"/></g></svg>