<svg width="16" height="16" xmlns="http://www.w3.org/2000/svg" viewBox="0 0 54 54" fill="#00962d"><path d="M28.55 25.76c-11.46-1.2-20.19-7-19.5-12.87s10.55-9.72 22-8.53a39 39 0 0 1 5.18.93 40.5 40.5 0 0 0-9.56-2.17C14.38 1.84 3.82 5.93 3.07 12.27S11.69 24.78 24 26.06a40.05 40.05 0 0 0 9.83-.14 39.25 39.25 0 0 1-5.28-.16Z"/><path d="M25.65 6.28c11.44 1.38 20.06 7.28 19.26 13.17S34.19 29 22.75 27.63a38.62 38.62 0 0 1-5.16-1 40 40 0 0 0 9.52 2.33C39.38 30.42 50 26.5 50.88 20.18S42.49 7.53 30.22 6.05a40.49 40.49 0 0 0-9.84 0 39.6 39.6 0 0 1 5.27.23Zm2.67 32.56c-10-1-17.57-6.05-17-11.19A5.46 5.46 0 0 1 12.59 25c-.65-.25-1.39-.55-2.22-.92s-1.37-.67-1.91-.95a6.42 6.42 0 0 0-2.31 4c-.64 5.51 7.5 10.89 18.2 12A35.62 35.62 0 0 0 32.9 39a35.58 35.58 0 0 1-4.58-.16Z"/><path d="M42.91 29.36c-.8.31-1.7.63-2.47.84a23.13 23.13 0 0 1-2.53.51 4.88 4.88 0 0 1 .67 1.4c1.35 5-5.45 11-15.18 13.27a33.74 33.74 0 0 1-4.52.74 35.45 35.45 0 0 0 8.5-1c10.43-2.47 17.72-8.85 16.28-14.22a5.5 5.5 0 0 0-.75-1.54Z"/><path d="M14.59 43a5.56 5.56 0 0 1 2.72-4.15 15.4 15.4 0 0 1-1.51-.49l-1-.39c-2.1 1.24-3.47 2.93-3.57 4.87-.23 4.16 5.23 7.74 12.22 8.07A19.82 19.82 0 0 0 29 50.4a19.44 19.44 0 0 1-3 .12c-6.49-.31-11.61-3.69-11.41-7.52Zm28.02-13.43c-.5 0-1.75.93-2.21.9s-1.87.42-2.33.34a4.56 4.56 0 0 1 .21 1.19c-.12 2.62-4.69 4.65-10.41 4.15a18.66 18.66 0 0 1-2.59-.43 11.23 11.23 0 0 0 5 1.51c6.15.52 12.38-1.67 12.69-4.84a26.14 26.14 0 0 0-.36-2.82ZM29.24 8.71c-8.34-2-16.16.32-17.46 5.17a6 6 0 0 0 .47 4.12v-.34c.81-4.73 8.05-7.55 16.16-6.32s13.77 5.88 13.24 10.51a6.36 6.36 0 0 0 .33-.7c1.3-4.9-4.4-10.45-12.74-12.44Z"/></svg>