<svg width="16" height="16" xmlns="http://www.w3.org/2000/svg" viewBox="0 0 54 54"><path d="M10 3v48h22.6a6 6 0 0 0 4.28-1.79l5.39-5.48A6 6 0 0 0 44 39.49V3Zm3.09 3.09h27.82V36a3 3 0 0 1-3 3H32v5.91a3 3 0 0 1-3 3H13.09ZM35 46.68V42h4.64Z" fill="#00962d"/><path fill="#00962d" d="M20.57 17.46H18v5.15h2.57l3.86 2.57h1.28V14.89h-1.28l-3.86 2.57zM29.24 14l-1.69 1.68a6.06 6.06 0 0 1 0 8.56l1.69 1.68a8.43 8.43 0 0 0 0-11.92Z"/><path d="m32.27 11-1.69 1.69a10.31 10.31 0 0 1 0 14.62L32.27 29a12.73 12.73 0 0 0 0-18Z" fill="#00962d"/></svg>