<svg xmlns="http://www.w3.org/2000/svg" viewBox="0 0 54 54"><path d="m31.35 6 .54 4.28A16.51 16.51 0 0 0 29 10a17.75 17.75 0 0 0-2.81.23 17 17 0 1 0 9.73 32.29L36.6 48H6V6h25.35M34 3H3v48h37l-1.28-10.26a2 2 0 0 0-2-1.74 2 2 0 0 0-1 .26A13.82 13.82 0 0 1 29 41a14 14 0 0 1-2.33-27.81A14.35 14.35 0 0 1 29 13a13.74 13.74 0 0 1 3.54.46 2.4 2.4 0 0 0 .52.07 2 2 0 0 0 2-2.25L34 3z" fill="#00962d"/><path d="m37 3 1.66 13.3a2 2 0 0 1-3.21 1.82 11 11 0 0 0-7.53-2A11 11 0 0 0 29 38a11 11 0 0 0 8.46-4A2 2 0 0 1 41 35c.88 7 2 16 2 16h8V3z" fill="#00962d"/></svg>