<svg viewBox="0 0 64 64" xmlns="http://www.w3.org/2000/svg" xml:space="preserve" fill-rule="evenodd" clip-rule="evenodd" stroke-linejoin="round" stroke-miterlimit="2"><path fill="none" d="M0 0h64v64H0z"/><g fill="#00962D"><path d="M4 14v36h56V14H4Zm53 33H7V17h50v30Z" fill-rule="nonzero"/><path d="M35.05 36h2v-2h-2V22.06h-2V34h-2v2h2v6h-4v2h4v-1.94h2V44h4v-2h-4v-6Z" fill-rule="nonzero"/><path d="M29.05 20h4v2h-4zm6 0h4v2h-4z"/><path d="m20.87 24-.69-2H15v2h2.14l-5.5 16H9v2h3.75c.2 0 .37-.07.5-.2.14-.13.23-.28.28-.45l1.61-4.83h7.72l1.61 4.83c.06.19.16.34.29.46.13.12.3.18.5.18H29v-2h-2.63l-5.5-16V24Zm-5.08 10.58 2.7-8.12c.18-.5.35-1.13.52-1.88a19.542 19.542 0 0 0 .5 1.87l2.7 8.14h-6.42v-.01Z" fill-rule="nonzero"/></g></svg>