<svg viewBox="0 0 16 16" xmlns="http://www.w3.org/2000/svg" xml:space="preserve" fill-rule="evenodd" clip-rule="evenodd" stroke-linejoin="round" stroke-miterlimit="2"><path d="M4.68.937v6.605h6.569V.937h-6.57Zm3.304.785c.856-.036.856 1.265 0 1.23-.785-.034-.785-1.196 0-1.23Zm-1.236 1.86H8.59v2.333h.606v.611h-2.45v-.611h.607V4.039h-.605v-.457ZM.868 8.744v6.39H15.13v-6.38L.867 8.743Zm.97.898 12.323.006v4.59H1.837V9.643Z" fill="#00962d" fill-rule="nonzero"/><path d="M3.511 10.678v.891h8.914v-.89l-8.914-.001Zm0 1.783v.891h8.914v-.89L3.51 12.46Z" fill="#00962d" fill-rule="nonzero"/></svg>