<svg viewBox="0 0 16 16" xmlns="http://www.w3.org/2000/svg" xml:space="preserve" fill-rule="evenodd" clip-rule="evenodd" stroke-linejoin="round" stroke-miterlimit="2"><path d="M13.512 3.018v9.965H2.473V3.017h11.039m1-1H1.473v11.966h13.039V2.017z" fill="#00962d" fill-rule="nonzero"/><path fill="#00962d" fill-rule="nonzero" d="M1.473 4.136h13.054V5.2H1.473z"/><path d="M5.386 4.136H6.45v9.576H5.386V4.138zm4.231 0h1.064v9.576H9.617V4.138zM3.5 5.966h1.106v1.106H3.5V5.965zm0 5h1.106v1.106H3.5v-1.106zm3.947-2.041h1.106v1.105H7.447V8.925zm0-1.854h1.106v1.107H7.447V7.07zm4.01 2.96h1.106v1.105h-1.106v-1.105zm0-1.956h1.106v1.107h-1.106V8.075z" fill="#00962d" fill-rule="nonzero"/></svg>