<svg width="16" height="16" xmlns="http://www.w3.org/2000/svg" viewBox="0 0 54 54"><path d="M41 31a10 10 0 1 0 10 10 10 10 0 0 0-10-10Zm0 17a7 7 0 1 1 7-7 7 7 0 0 1-7 7Z" fill="#fff"/><path d="M33 26.83A12 12 0 1 0 23.2 13a14.72 14.72 0 0 0-5.2-1 15 15 0 1 0 15 15v-.17ZM18 39a12 12 0 1 1 12-12 12 12 0 0 1-12 12Zm8-24.65A9 9 0 1 1 35 24a8.63 8.63 0 0 1-2.39-.34A15 15 0 0 0 26 14.35Z" fill="#fff"/><path d="M22.21 17.06A10.71 10.71 0 0 0 18 16.2a10.87 10.87 0 0 0-9.78 6.25 1.29 1.29 0 0 0 .62 1.72 1.23 1.23 0 0 0 .55.13 1.3 1.3 0 0 0 1.18-.75 8.22 8.22 0 0 1 10.63-4.11 1.29 1.29 0 1 0 1-2.38ZM8.5 25.7A1.3 1.3 0 0 0 7.2 27a10.48 10.48 0 0 0 .14 1.68 1.3 1.3 0 0 0 1.27 1.1h.21a1.3 1.3 0 0 0 1.08-1.5A7.8 7.8 0 0 1 9.8 27a1.3 1.3 0 0 0-1.3-1.3ZM38.66 9.49a1.23 1.23 0 0 0-.66-1.6 7.72 7.72 0 0 0-10.64 5.92 1.21 1.21 0 0 0 1 1.39h.19a1.21 1.21 0 0 0 1.2-1A5.33 5.33 0 0 1 35 9.72a5.23 5.23 0 0 1 2.06.42 1.23 1.23 0 0 0 1.6-.65Zm4.53 26.33A5.62 5.62 0 0 0 35.37 41a6.52 6.52 0 0 0 .07.88 1.13 1.13 0 0 0 1.11.95h.18a1.13 1.13 0 0 0 .94-1.29 3 3 0 0 1-.05-.52 3.39 3.39 0 0 1 3.38-3.4 3.27 3.27 0 0 1 1.31.27 1.12 1.12 0 1 0 .88-2.07Z" fill="#fff"/></svg>