<?xml version="1.0" encoding="UTF-8"?><svg id="b" xmlns="http://www.w3.org/2000/svg" viewBox="0 0 64 64"><defs><style>.f{fill:none;}.g{fill:#ffffff;}</style></defs><g id="c"><rect class="f" width="64" height="64"/></g><g id="d"><g id="e"><g><path class="g" d="m60,4H14v12h-2v4h2v30h30v2h4v-2h12V4Zm-4,42H18V8h38v38Z"/><rect class="g" x="4" y="16" width="4" height="4"/><rect class="g" x="4" y="24" width="4" height="4"/><rect class="g" x="4" y="32" width="4" height="4"/><rect class="g" x="4" y="40" width="4" height="4"/><rect class="g" x="4" y="48" width="4" height="4"/><rect class="g" x="44" y="56" width="4" height="4"/><rect class="g" x="4" y="56" width="4" height="4"/><rect class="g" x="12" y="56" width="4" height="4"/><rect class="g" x="20" y="56" width="4" height="4"/><rect class="g" x="28" y="56" width="4" height="4"/><rect class="g" x="36" y="56" width="4" height="4"/></g></g></g></svg>