<?xml version="1.0" encoding="UTF-8"?><svg id="b" xmlns="http://www.w3.org/2000/svg" viewBox="0 0 64 64"><defs><style>.f{fill:none;}.g{fill:#ffffff;}</style></defs><g id="c"><rect class="f" width="64" height="64"/></g><g id="d"><g id="e"><path class="g" d="m18,4v49h21.71c1.87,0,3.67-.75,4.99-2.09l6.29-6.39c1.29-1.31,2.01-3.07,2.01-4.91V4H18Zm24.5,43.99v-5.5h5.41l-5.41,5.5Zm6.89-12.5c0,1.93-1.57,3.5-3.5,3.5h-6.89v6.89c0,1.93-1.57,3.5-3.5,3.5h-13.89V7.61h27.78v27.89Z"/><rect class="g" x="10" y="49" width="3" height="3"/><rect class="g" x="10" y="43" width="3" height="3"/><rect class="g" x="10" y="37" width="3" height="3"/><rect class="g" x="10" y="31" width="3" height="3"/><rect class="g" x="10" y="25" width="3" height="3"/><rect class="g" x="10" y="19" width="3" height="3"/><polygon class="g" points="13 55 10 55 10 57 10 60 13 60 15 60 15 57 13 57 13 55"/><polygon class="g" points="10 11 10 14 10 16 13 16 13 14 15 14 15 11 13 11 10 11"/><rect class="g" x="18" y="57" width="3" height="3"/><rect class="g" x="24" y="57" width="3" height="3"/><rect class="g" x="30" y="57" width="3" height="3"/><rect class="g" x="36" y="57" width="3" height="3"/><polygon class="g" points="44 57 42 57 42 60 44 60 45 60 47 60 47 55 44 55 44 57"/></g></g></svg>