<svg width="16" height="16" xmlns="http://www.w3.org/2000/svg" viewBox="0 0 54 54"><path d="M10 3v48h22.6a6 6 0 0 0 4.28-1.79l5.39-5.48A6 6 0 0 0 44 39.49V3Zm3.09 3.09h27.82V36a3 3 0 0 1-3 3H32v5.91a3 3 0 0 1-3 3H13.09ZM35 46.68V42h4.64Z" fill="#fff"/><path d="m36.62 15.42-4.12 2.75v-2.44A1.69 1.69 0 0 0 30.82 14H17.68A1.69 1.69 0 0 0 16 15.73v10.38a1.68 1.68 0 0 0 1.68 1.68h13.14a1.68 1.68 0 0 0 1.68-1.68v-2.44l4.12 2.75H38v-11ZM31 26.11a.14.14 0 0 1-.14.14H17.68a.14.14 0 0 1-.14-.14V15.73a.15.15 0 0 1 .14-.15h13.14a.15.15 0 0 1 .14.15Z" fill="#fff"/><path fill="#fff" d="m21.5 25.04 6.19-4.12-6.19-4.13v8.25z"/></svg>