<svg width="16" height="16" xmlns="http://www.w3.org/2000/svg" viewBox="0 0 54 54"><path d="M10 3v48h22.6a6 6 0 0 0 4.28-1.79l5.39-5.48A6 6 0 0 0 44 39.49V3Zm25 43.68V42h4.64ZM40.91 36a3 3 0 0 1-3 3H32v5.91a3 3 0 0 1-3 3H13.09V6.06h27.82Z" fill="#fff"/><path d="M24.56 23H16v3h6.77l-.85 1.41L22 34l6-3.19 8-13.28.88-1.48.59-1a3.34 3.34 0 0 0-1.29-4.64 3.61 3.61 0 0 0-4.25.54H16v3h14l-.1.16L28.16 17H16v3h10.36Zm10.71-11.1a1.66 1.66 0 0 1 .65 2.32l-.59 1-3.06-1.7.59-1a1.8 1.8 0 0 1 2.41-.62ZM31.39 15l3.06 1.7-7.7 12.84-1.11.59L23.7 29v-1.2Z" fill="#fff"/></svg>