<svg xmlns="http://www.w3.org/2000/svg" viewBox="0 0 54 54"><g fill="#fff"><path d="M51 27a23.69 23.69 0 0 0-4.25-13.58 1.61 1.61 0 0 0-2.23-.41 1.6 1.6 0 0 0-.41 2.22A20.47 20.47 0 0 1 47.8 27a21.51 21.51 0 0 1-.37 3.87 15 15 0 0 1-12 6.05 15.3 15.3 0 0 1-15.16-15.39v-.22A25.31 25.31 0 0 0 7 32.57 20.19 20.19 0 0 1 6.2 27 20.51 20.51 0 0 1 10 15.17 1.59 1.59 0 0 0 9.57 13a1.62 1.62 0 0 0-2.23.39 23.77 23.77 0 0 0 6 33.29 3.21 3.21 0 0 0-.19.92 3.43 3.43 0 0 0 3.39 3.4h20.83a3.43 3.43 0 0 0 3.42-3.42 3.14 3.14 0 0 0-.18-.86A23.83 23.83 0 0 0 51 27z"/><path d="M26.88 16.28A14 14 0 0 0 34 12.43c4.47-4.9 3.31-9.53 3.31-9.53s-4.75-.71-9.22 4.19A13.88 13.88 0 0 0 25 14.54l-5.13 1.63 5.91 5.34z"/></g></svg>