<?xml version="1.0" encoding="UTF-8"?><svg id="b" xmlns="http://www.w3.org/2000/svg" viewBox="0 0 56 56"><defs><style>.e{fill:#fff;}</style></defs><g id="c"><g id="d"><polygon class="e" points="44.01 20.01 36.01 20.01 36.01 12.01 32.06 8.06 32.01 8.02 32.01 24.01 48 24.01 47.96 23.96 44.01 20.01"/><rect class="e" x="13" y="5.1" width="4" height="19.8" transform="translate(-6.21 15) rotate(-45)"/><rect class="e" x="39.5" y="30.89" width="4" height="21.21" transform="translate(-17.19 41.5) rotate(-45)"/><rect class="e" x="38.96" y="5.06" width="4" height="19.8" transform="translate(22.58 -24.58) rotate(45)"/><rect class="e" x="12.71" y="30.96" width="4" height="20.51" transform="translate(33.45 1.67) rotate(45)"/><path class="e" d="M52,4V52H4V4H52M56,0H0V56H56V0h0Z"/><polygon class="e" points="11.99 36.02 20 36.02 20 44.03 23.95 47.98 24 48.01 24 32.02 8.01 32.02 8.05 32.07 11.99 36.02"/><polygon class="e" points="36.01 44.03 36.01 36.02 44.01 36.02 47.96 32.07 48 32.02 32.01 32.02 32.01 48.01 32.06 47.98 36.01 44.03"/><polygon class="e" points="20 12.01 20 20.01 11.99 20.01 8.05 23.96 8.01 24.01 24 24.01 24 8.02 23.95 8.06 20 12.01"/></g></g></svg>
