<?xml version="1.0" encoding="UTF-8"?><svg id="b" xmlns="http://www.w3.org/2000/svg" viewBox="0 0 56 56"><defs><style>.e{fill:#fff;}</style></defs><g id="c"><g id="d"><g><polygon class="e" points="35.99 12.02 44 12.02 44 20.03 47.95 23.98 48 24.01 48 8.02 32.01 8.02 32.05 8.07 35.99 12.02"/><polygon class="e" points="20.01 44.01 12.01 44.01 12.01 36.01 8.06 32.06 8.01 32.02 8.01 48.01 24 48.01 23.96 47.96 20.01 44.01"/><polygon class="e" points="44 36.01 44 44.01 35.99 44.01 32.05 47.96 32.01 48.01 48 48.01 48 32.02 47.95 32.06 44 36.01"/><polygon class="e" points="12.01 20.03 12.01 12.02 20.01 12.02 23.96 8.07 24 8.02 8.01 8.02 8.01 24.01 8.06 23.98 12.01 20.03"/></g><rect class="e" x="16" y="8.1" width="4" height="19.8" transform="translate(-7.46 18) rotate(-45)"/><rect class="e" x="36.5" y="27.89" width="4" height="21.21" transform="translate(-15.95 38.5) rotate(-45)"/><rect class="e" x="35.96" y="8.06" width="4" height="19.8" transform="translate(23.82 -21.58) rotate(45)"/><rect class="e" x="15.71" y="27.96" width="4" height="20.51" transform="translate(32.21 -1.33) rotate(45)"/><path class="e" d="M52,4V52H4V4H52M56,0H0V56H56V0h0Z"/></g></g></svg>
