<?xml version="1.0" encoding="UTF-8"?><svg id="b" xmlns="http://www.w3.org/2000/svg" viewBox="0 0 64 64"><defs><style>.f{fill:none;}.g{fill:#fff;}</style></defs><g id="c"><rect class="f" width="64" height="64"/></g><g id="d"><g id="e"><path class="g" d="m50.71,13h-.42c-.82,0-1.59.2-2.29.54v-1.04c0-1.97-1.04-3.69-2.59-4.66,0,0,0,0,0,0-.26-.16-.52-.3-.8-.42-.05-.02-.09-.03-.14-.05-.25-.09-.5-.17-.77-.23-.02,0-.04-.01-.06-.02,0,0-.01,0-.02,0-.32-.07-.65-.1-.99-.11-.03,0-.05,0-.08,0-.02,0-.03,0-.05,0-.3,0-.59.03-.87.08-.08.01-.16.03-.24.05-.22.05-.44.11-.65.18-.08.03-.16.05-.24.08-.27.11-.54.23-.79.38-.73-2.19-2.79-3.76-5.22-3.76-2.74,0-5,2-5.42,4.62-.74-.38-1.56-.62-2.45-.62h-.25c-2.97,0-5.37,2.41-5.37,5.37v19.91l-3.18-6c-.93-1.76-2.74-2.76-4.61-2.76-.82,0-1.65.19-2.42.6-2.55,1.33-3.53,4.45-2.19,6.98l12.17,22.9c2.01,3.99,4.02,4.99,7.04,4.99h17.2c7.18,0,11-5.82,11-12.99v-28.71c0-2.92-2.37-5.29-5.29-5.29Zm-5.71,43h-17.2c-1.32,0-2.05,0-3.46-2.8-.01-.03-.03-.05-.04-.08l-12.16-22.9c-.18-.35-.15-.67-.08-.87.07-.21.22-.5.6-.69.18-.09.37-.14.56-.14.36,0,.82.17,1.07.63l3.18,6c.71,1.33,2.08,2.13,3.53,2.13.32,0,.64-.04.97-.12,1.78-.44,3.03-2.04,3.03-3.88V13.37c0-.76.62-1.37,1.37-1.37h.25c.19,0,.39.06.61.17.04.02.08.03.12.04.39.24.64.67.64,1.16v16.13c0,1.38,1.12,2.5,2.5,2.5s2.5-1.12,2.5-2.5V9.5c0-.08.01-.16.02-.24,0,0,0,0,0,0,.03-.17.09-.33.17-.48,0-.01.01-.03.02-.04.08-.13.18-.25.29-.35.02-.02.04-.04.07-.05.12-.09.24-.17.38-.23.02,0,.04-.01.07-.02.15-.05.31-.09.48-.09s.32.03.46.08c.03,0,.06.02.08.03.13.05.25.12.36.2.02.01.04.03.06.05.22.18.37.42.45.65.06.16.09.32.09.5v18c0,1.38,1.12,2.5,2.5,2.5s2.5-1.12,2.5-2.5v-15c0-.56.31-1.04.76-1.3.1-.06.2-.1.31-.13.02,0,.04-.02.07-.02.12-.03.24-.05.36-.05.83,0,1.5.67,1.5,1.5v19c0,1.38,1.12,2.5,2.5,2.5s2.5-1.12,2.5-2.5v-13.21c0-.5.29-.92.71-1.14,0,0,.02,0,.03-.01.06-.03.12-.05.18-.07.12-.04.24-.07.37-.07h.42c.71,0,1.29.58,1.29,1.29v28.71c0,2.11-.5,9-7,9Z"/></g></g></svg>