<svg width="16" height="16" xmlns="http://www.w3.org/2000/svg" viewBox="0 0 54 54"><defs><style>.a{fill:#ffffff;}</style></defs><path class="a" d="M17,22.07A12.38,12.38,0,1,1,34.58,33.55l1.41.57,8.28-2.83A17.37,17.37,0,1,0,12,22.34c0,.12,0,.23,0,.36Z"/><path class="a" d="M50.78,35.93a3.72,3.72,0,0,0-3.5-2.51,3.62,3.62,0,0,0-1.25.22L35.82,37.19,22.13,31.56l8.73-1.19A3.71,3.71,0,0,0,30.4,23l-.46,0L10.08,25.56a3.68,3.68,0,0,0-1.51.57A2.25,2.25,0,0,0,7.33,27.4l-.18.49c-.05.13-.1.25-.14.38L3.14,38.76a2.22,2.22,0,0,0,.18,1.92c.91,2,5.16,4.86,9.09,6.35l9.44,1.79a8.64,8.64,0,0,0,1.4.12l.45,0a3.81,3.81,0,0,0,.59,0,3.37,3.37,0,0,0,1.2-.21L27,48.23c.4-.12.82-.25,1.29-.41,5.15-1.66,10.9-3.7,13-4.56l.07,0,7.08-2.47A3.79,3.79,0,0,0,50.78,35.93Z"/></svg>
