<svg xmlns="http://www.w3.org/2000/svg" viewBox="0 0 54 54"><path d="M4.5 49.5v-45h45v45zm14.71-22a7.71 7.71 0 0 0-7.71 7.7v12.3h31V35.22a7.71 7.71 0 0 0-7.7-7.7zM27 5.55A10.5 10.5 0 1 0 37.5 16 10.5 10.5 0 0 0 27 5.55z" fill="#fff"/><path d="M48 6v42h-4V35.22A9.21 9.21 0 0 0 34.8 26h-1.13a12 12 0 0 0-.11-20H48M20.44 6a12 12 0 0 0-.11 20h-1.12A9.21 9.21 0 0 0 10 35.22V48H6V6h14.44M51 3H3v48h48V3zM27 25.05a9 9 0 1 1 9-9 9 9 0 0 1-9 9zM13 46V35.22A6.2 6.2 0 0 1 19.21 29H34.8a6.2 6.2 0 0 1 6.2 6.2V46z" fill="#fff"/></svg>