<?xml version="1.0" encoding="UTF-8" standalone="no"?>
<!DOCTYPE svg PUBLIC "-//W3C//DTD SVG 1.1//EN" "http://www.w3.org/Graphics/SVG/1.1/DTD/svg11.dtd">
<svg width="100%" height="100%" viewBox="0 0 64 64" version="1.1" xmlns="http://www.w3.org/2000/svg" xmlns:xlink="http://www.w3.org/1999/xlink" xml:space="preserve" xmlns:serif="http://www.serif.com/" style="fill-rule:evenodd;clip-rule:evenodd;stroke-linejoin:round;stroke-miterlimit:2;">
    <g id="c">
        <rect x="0" y="0" width="64" height="64" style="fill:none;"/>
    </g>
    <g id="d">
        <g id="e">
            <g>
                <path d="M4,14L4,50L60,50L60,14L4,14ZM57,17L57,30.5L16.5,30.5L16.5,17L57,17ZM7,17L13.5,17L13.5,30.5L7,30.5L7,17ZM7,47L7,33.5L13.5,33.5L13.5,47L7,47ZM16.5,47L16.5,33.5L57,33.5L57,47L16.5,47Z" style="fill:white;fill-rule:nonzero;"/>
                <circle cx="22.5" cy="23.5" r="2.5" style="fill:white;"/>
                <circle cx="41.83" cy="23.5" r="2.5" style="fill:white;"/>
                <circle cx="51.5" cy="23.5" r="2.5" style="fill:white;"/>
                <circle cx="32.17" cy="23.5" r="2.5" style="fill:white;"/>
                <circle cx="22.25" cy="40.5" r="2.5" style="fill:white;"/>
                <circle cx="41.75" cy="40.5" r="2.5" style="fill:white;"/>
                <circle cx="51.5" cy="40.5" r="2.5" style="fill:white;"/>
                <circle cx="32" cy="40.5" r="2.5" style="fill:white;"/>
            </g>
        </g>
    </g>
</svg>
