<svg viewBox="0 0 16 16" xmlns="http://www.w3.org/2000/svg" xml:space="preserve" fill-rule="evenodd" clip-rule="evenodd" stroke-linejoin="round" stroke-miterlimit="2"><path d="M2.877 11.9a.99.99 0 0 0 .986-.987.99.99 0 0 0-.986-.986.99.99 0 0 0-.986.986.99.99 0 0 0 .986.987Zm.917.468H1.957a.951.951 0 0 0-.948.951v1.236h3.736v-1.236a.954.954 0 0 0-.951-.95Zm9.329-.468a.992.992 0 0 0 .988-.987.992.992 0 0 0-.986-.986h-.001a.992.992 0 0 0-.987.986c0 .541.445.986.986.987Zm.917.468h-1.836a.957.957 0 0 0-.95.951v1.236h3.737v-1.236a.954.954 0 0 0-.951-.95Zm-6.024-8.95a.991.991 0 0 0 .986-.986.991.991 0 0 0-.986-.987.99.99 0 0 0-.986.987.99.99 0 0 0 .986.986Zm.916.469H7.095a.95.95 0 0 0-.948.95v1.236h3.737V4.838a.954.954 0 0 0-.952-.951Zm-.47 3.666v-.877H7.57v.877H2.742v1.734h.924v-.85h8.715v.85h.826V7.553H8.46Z" fill="#fff" fill-rule="nonzero"/></svg>