<?xml version="1.0" encoding="UTF-8"?><svg id="b" xmlns="http://www.w3.org/2000/svg" viewBox="0 0 64 64"><defs><style>.f{fill:none;}.g{fill:#ffffff;}</style></defs><g id="c"><rect class="f" width="64" height="64"/></g><g id="d"><g id="e"><polygon class="g" points="60 40.01 56 40.01 56 56 40.01 56 40.01 60 60 60 60 40.01"/><polygon class="g" points="24.01 8.02 24.01 4.02 4.02 4.02 4.02 24.01 8.02 24.01 8.02 8.02 24.01 8.02"/><polygon class="g" points="8.02 56 8.02 40.01 4.02 40.01 4.02 60 24.01 60 24.01 56 8.02 56"/><polygon class="g" points="56 8.02 56 24.01 60 24.01 60 4.02 40.01 4.02 40.01 8.02 56 8.02"/><polygon class="g" points="34.01 14 34.05 14.05 38 18 43.19 18 34.12 27.08 36.95 29.9 46.01 20.84 46.01 26.01 49.96 29.96 50 30 50 14 34.01 14"/><polygon class="g" points="26.01 46.01 20.84 46.01 29.87 36.98 27.05 34.15 18 43.19 18 38 14.05 34.05 14 34.01 14 50 30 50 29.96 49.96 26.01 46.01"/></g></g></svg>