<svg xmlns="http://www.w3.org/2000/svg" viewBox="0 0 16 16" shape-rendering="geometricPrecision" fill="#ffad00"><path d="m11.686 6.423.6-.513-.675-.269zM14.245.038a.714.714 0 0 0-.927.393l-.213.531 1.326.532.214-.532h-.001a.714.714 0 0 0-.399-.924zM11.527 4.9l1.433-3.573 1.325.532-1.433 3.572z" fill="#cb1800"/><g mask="url(#a)"><path d="M6.799 3.47 6.5 1.979h-4L2.2 3.47H.999v10h14v-10h-8.2zm7.201 9H2v-8h12v8z"/><path d="m6.685 11.616.575-.49-.646-.258zm-.151-1.457 1.37-3.418 1.268.509-1.37 3.417zm2.599-4.651a.683.683 0 0 0-.886.376l-.204.508 1.268.509.205-.509h-.001a.682.682 0 0 0-.382-.884z"/></g></svg>