<svg xmlns="http://www.w3.org/2000/svg" viewBox="0 0 16 16" shape-rendering="geometricPrecision" fill="#00962d"><path d="M13.114 2.537h2.538L15.651 0h-.867v1.105c-1.204-.927-2.924-.863-4.016.227-1.187 1.188-1.162 3.119.035 4.317 1.201 1.198 3.131 1.224 4.319.037A2.996 2.996 0 0 0 16 3.558l-.859.001a2.137 2.137 0 0 1-.627 1.521c-.843.842-2.231.836-3.104-.036-.871-.872-.877-2.26-.035-3.105.729-.727 1.86-.818 2.721-.268h-.983l.001.866z" fill="#cb1800"/><g mask="url(#a)"><path d="M5.295 3.817V7.67L2.909 9.059l.944 1.652 3.328-1.932h.02l-.003-4.961z"/><path d="M9.791 1.79h-3.58a6.211 6.211 0 0 0 0 12.421h3.58a6.21 6.21 0 0 0 0-12.421zm-3.58 11.163a4.961 4.961 0 0 1-4.955-4.951 4.962 4.962 0 0 1 4.955-4.956 4.96 4.96 0 0 1 4.953 4.956 4.96 4.96 0 0 1-4.953 4.951zm3.744-.008a6.196 6.196 0 0 0 2.465-4.942 6.195 6.195 0 0 0-2.464-4.947 4.956 4.956 0 0 1 4.788 4.947 4.956 4.956 0 0 1-4.789 4.942z"/></g></svg>