<svg xmlns="http://www.w3.org/2000/svg" viewBox="0 0 16 16" shape-rendering="geometricPrecision" fill="#00962d"><path d="M13.114 2.537h2.538L15.651 0h-.867v1.105c-1.204-.927-2.924-.863-4.016.227-1.187 1.188-1.162 3.119.035 4.317 1.201 1.198 3.131 1.224 4.319.037A2.996 2.996 0 0 0 16 3.558l-.859.001a2.137 2.137 0 0 1-.627 1.521c-.843.842-2.231.836-3.104-.036-.871-.872-.877-2.26-.035-3.105.729-.727 1.86-.818 2.721-.268h-.983l.001.866z" fill="#cb1800"/><path mask="url(#a)" d="M10.28 0 8.324 1.954l2.182 2.183h-.623l-.416.021C4.211 4.38 0 8.712 0 14.02v.63h2.994v-.63c0-1.839.717-3.569 2.017-4.872A6.85 6.85 0 0 1 9.884 7.13h.629v-.001h.167L8.324 9.487l1.954 1.953L16 5.717 10.28 0z"/></svg>