<svg xmlns="http://www.w3.org/2000/svg" viewBox="0 0 16 16" shape-rendering="geometricPrecision"><path d="m11.686 6.423.6-.513-.675-.269zM14.245.038a.714.714 0 0 0-.927.393l-.213.531 1.326.532.214-.532h-.001a.714.714 0 0 0-.399-.924zM11.527 4.9l1.433-3.573 1.325.532-1.433 3.572z" fill="#cb1800"/><g mask="url(#a)"><path d="m13.237 5.237-1.791 1.791-3.447-3.445-3.448 3.445-1.789-1.791L8.002 0zM1.041 8.334v6.636h13.958V8.334H1.041zm11.157 3.914a1.08 1.08 0 1 1 0-2.162 1.08 1.08 0 1 1 0 2.162z"/></g></svg>