<svg data-name="Ebene 2" xmlns="http://www.w3.org/2000/svg" viewBox="0 0 64 64"><path fill="none" d="M0 0h64v64H0z" data-name="Viewbox 64x64"/><g fill="#cb1800"><path d="M53.48 7.54H10.53c-3.59 0-6.52 2.94-6.52 6.52v25.45c0 3.59 2.94 6.52 6.52 6.52h8.65l.03 10.5c6.46-.02 11.93-4.5 13.5-10.5h20.78c3.59 0 6.52-2.94 6.52-6.52V14.06c0-3.59-2.94-6.52-6.52-6.52Zm3.02 31.98c0 1.67-1.36 3.02-3.02 3.02H29.67c0 4.55-2.92 8.44-6.98 9.89l-.02-9.89H10.53c-1.67 0-3.02-1.36-3.02-3.02V14.06c0-1.67 1.36-3.02 3.02-3.02h42.95c1.67 0 3.02 1.36 3.02 3.02v25.45Z"/><path d="M37.35 29.74 46 23.45H35.3L32 13.26l-3.3 10.19H18l8.65 6.29-3.3 10.19 8.65-6.3 8.65 6.3-3.3-10.19z"/></g></svg>