<svg width="16" height="16" xmlns="http://www.w3.org/2000/svg" viewBox="0 0 54 54"><path fill="#cb1800" d="M27 14.97h3v3h-3zm0 6h3v3h-3zm-3 3h3v3h-3zm3 3h3v3h-3zm0 6h3v3h-3zm-3-3h3v3h-3zm0 6h3v3h-3zm3 3h3v3h-3zm-3 3h3v3h-3z"/><path d="M10 3v48h22.61a6 6 0 0 0 4.27-1.79l5.39-5.47A6 6 0 0 0 44 39.53V3Zm16.45 8.13A1.44 1.44 0 0 1 24 9.65 1.42 1.42 0 0 1 25.24 9h.2a1.42 1.42 0 0 1 .51.18 1.45 1.45 0 0 1 .5 1.95ZM35 46.71V42h4.64ZM40.91 36a3 3 0 0 1-3 3H32v5.91a3 3 0 0 1-2 2.81V45h-3v2.94H13.09V6.1h10.84v2a2.65 2.65 0 0 0-.69.56l-3.5 4a3.81 3.81 0 0 0-.37.5 3.56 3.56 0 0 0 1.23 4.88 3.49 3.49 0 0 0 3.4.07V21h3v-3h-2.6a3.55 3.55 0 0 0 1.08-1.1 3.67 3.67 0 0 0 .27-.57l.51-1.33H27v-2c.12-.3.24-.63.4-1H30V6.1h10.91Z" fill="#cb1800"/></svg>