<svg width="16" height="16" xmlns="http://www.w3.org/2000/svg" viewBox="0 0 54 54"><path d="M18.44 26.65A3.44 3.44 0 1 0 15 23.21a3.43 3.43 0 0 0 3.44 3.44ZM20 28.28h-3.13a3.32 3.32 0 0 0-3.31 3.31v4.31h9.76v-4.31A3.32 3.32 0 0 0 20 28.28Zm15.56 2.44a3.44 3.44 0 1 0-3.44-3.44 3.44 3.44 0 0 0 3.44 3.44Zm1.56 1.63H34a3.31 3.31 0 0 0-3.3 3.31V40h9.76v-4.34a3.33 3.33 0 0 0-3.34-3.31Zm-11.07-9.51a3.44 3.44 0 1 0-3.44-3.43 3.43 3.43 0 0 0 3.44 3.43Z" fill="#cb1800"/><path d="M30.93 32.1v-4.31a3.32 3.32 0 0 0-3.32-3.31h-3.14a3.29 3.29 0 0 0-3.28 3.18 4.12 4.12 0 0 1 2.95 3.93v.51Z" fill="#cb1800"/><path d="M28 11V9.94a3 3 0 0 0-3-3H14a3 3 0 0 0-3 3V11H3v35h48V11Zm20 32H6V13.94h42Z" fill="#cb1800"/></svg>