<svg width="16" height="16" xmlns="http://www.w3.org/2000/svg" viewBox="0 0 54 54"><g fill="#cb1800"><path d="M40.41 11H8.59A5.61 5.61 0 0 0 3 16.56v16.82A5.61 5.61 0 0 0 8.59 39H14v9a12.07 12.07 0 0 0 11.6-9h14.81A5.61 5.61 0 0 0 46 33.38V16.56A5.61 5.61 0 0 0 40.41 11ZM43 33.38A2.59 2.59 0 0 1 40.41 36H23a9 9 0 0 1-6 8.48V36H8.59A2.59 2.59 0 0 1 6 33.38V16.56A2.59 2.59 0 0 1 8.59 14h31.82A2.59 2.59 0 0 1 43 16.56Z"/><path d="M45.53 6H13.47A5.46 5.46 0 0 0 8.6 9H46a2.47 2.47 0 0 1 2 2.42v21.95a5.49 5.49 0 0 0 3-4.87V11.44A5.48 5.48 0 0 0 45.53 6Z"/><path d="M10 18.97h30v4H10zm0 7h30v4H10z"/></g></svg>