<svg xmlns="http://www.w3.org/2000/svg" viewBox="0 0 64 64"><path fill="none" d="M0 0h64v64H0z"/><path d="M48.01 45.02c4.01 7.31 8.06 13.86 9.47 13.28 1.25-.52.06-6.42-1.8-13.28l-1.37-4.84c-2.64-8.97-5.74-17.89-5.74-17.89-1.12-2.8-4.3-4.16-7.09-3.03a5.454 5.454 0 0 0-3.03 7.09s3.18 6.62 6.97 13.84l2.6 4.84ZM33.89 9.55c1.27 1.45.98 3.14.89 4.31 0 .06 0 .08-.02.21-.01.39-.02.78.09 1.18a4.019 4.019 0 0 0 4.94 2.79 4.019 4.019 0 0 0 2.79-4.94s-1-3.6-4.39-5.92c-2.97-2.04-7.79-1.65-7.84-.46-.06 1.33 1.9.98 3.53 2.84ZM14.6 21.21c1.34-.09 2.29-2.16 2.12-4.62s-1.39-4.37-2.73-4.28-2.29 2.16-2.12 4.62c.17 2.46 1.39 4.37 2.73 4.28Zm8.32-5.29c1.06-.51 1.09-2.66.07-4.82s-2.72-3.5-3.78-2.99c-1.06.51-1.09 2.66-.07 4.82 1.03 2.16 2.72 3.5 3.78 2.99ZM13.2 33.34c3.13 1.3 6.79 1.47 10.18.42 3.36-1.07 6.37-3.46 7.97-6.51 1.64-2.99 2.18-6.4 1.47-9.52-2.52 5.78-6.02 10.03-10.9 11.42-2.38.81-5.02.92-7.69.56-2.7-.38-5.37-1.35-8.23-2.75 1.43 2.84 4.06 5.16 7.2 6.38Z" fill="#cb1800"/></svg>