<svg viewBox="0 0 16 16" xmlns="http://www.w3.org/2000/svg" xml:space="preserve" fill-rule="evenodd" clip-rule="evenodd" stroke-linejoin="round" stroke-miterlimit="2"><path d="M1.141 1.225h4.322v4.303H1.141V1.225Zm8.285.709v2.859h-2.87v-2.86h2.87m.727-.723H5.829v4.304h4.324V1.21Zm3.979.724v2.859h-2.87v-2.86h2.87m.726-.723h-4.322v4.304h4.322V1.21ZM4.738 6.622v2.855H1.87V6.622h2.87m.724-.725H1.141v4.305h4.322V5.897Zm.366-.014h4.324v4.305H5.829V5.883Zm4.708 0h4.322v4.305h-4.322V5.883ZM1.14 10.486h4.322v4.304H1.141v-4.304Zm4.688-.015h4.324v4.305H5.829V10.47Zm8.303.725v2.857h-2.87v-2.857h2.87m.726-.725h-4.322v4.305h4.322V10.47Z" fill="#cb1800" fill-rule="nonzero"/></svg>