<svg xmlns="http://www.w3.org/2000/svg" viewBox="0 0 16 16" shape-rendering="geometricPrecision" fill="#24437c"><path d="m16 4.656-1.722-1.721L16 1.214 14.789.001l-1.723 1.721L11.344.001l-1.212 1.212 1.722 1.721-1.724 1.722 1.215 1.214 1.722-1.723 1.722 1.723z" fill="#cb1800"/><path mask="url(#a)" d="M10.28 0 8.324 1.954l2.182 2.183h-.623l-.416.021C4.211 4.38 0 8.712 0 14.02v.63h2.994v-.63c0-1.839.717-3.569 2.017-4.872A6.85 6.85 0 0 1 9.884 7.13h.629v-.001h.167L8.324 9.487l1.954 1.953L16 5.717 10.28 0z"/></svg>