<svg xmlns="http://www.w3.org/2000/svg" viewBox="0 0 16 16" shape-rendering="geometricPrecision" fill="#fff"><path d="M12.997 1.611a3.394 3.394 0 0 0-3.003 1.81 3.397 3.397 0 0 0 6.006 0 3.398 3.398 0 0 0-3.003-1.81zm-.001 3.396a1.587 1.587 0 1 1 0-3.174 1.587 1.587 0 0 1 0 3.174z" fill="#cb1800"/><g mask="url(#a)"><path d="M7.999 3.007.701 5.591 3.853 7.29l4-1.688.663.303L4.52 7.651l3.479 1.873 7.3-3.933zM3.336 7.813l-1.692.602 1.447.779.245.133z"/><path d="m12.661 7.813-4.662 2.512-3.001-1.617v1.514l3.001 1.617 4.692-2.529 1.665-.895zm-8.762 4.729.608.451v-5.33l-.608-.367z"/></g></svg>