<svg xmlns="http://www.w3.org/2000/svg" viewBox="0 0 16 16" shape-rendering="geometricPrecision" fill="#24437c"><path d="M12.997 1.611a3.394 3.394 0 0 0-3.003 1.81 3.397 3.397 0 0 0 6.006 0 3.398 3.398 0 0 0-3.003-1.81zm-.001 3.396a1.587 1.587 0 1 1 0-3.174 1.587 1.587 0 0 1 0 3.174z" fill="#cb1800"/><g mask="url(#a)"><path d="M3.032-.012v1.056h10.329v9.226h1.073V-.012zM8.98 15.293l2.525-2.325H8.98z"/><path d="M1.566 15.97h5.971v-4.44h4.773V2.088H1.566V15.97zM2.94 3.326h8.116v6.725h-4.79v4.601H2.94V3.326z"/></g></svg>