<svg xmlns="http://www.w3.org/2000/svg" viewBox="0 0 16 16" shape-rendering="geometricPrecision" fill="#6e6e6e"><path fill="#cb1800" d="M13.928 3.94 16 2.435h-2.561L12.648 0l-.791 2.435H9.295l2.072 1.505-.79 2.437 2.071-1.506 2.071 1.506z"/><g mask="url(#a)"><path d="M11.246 9.283a2.493 2.493 0 0 0 2.497-2.495 2.493 2.493 0 0 0-2.497-2.494 2.496 2.496 0 1 0 0 4.989zM.005 12.873V16h5.081v-3.128a3.819 3.819 0 0 1 .869-2.403H2.403a2.406 2.406 0 0 0-2.398 2.404zm13.559-2.404H8.919a2.406 2.406 0 0 0-2.398 2.404V16h9.45v-3.127a2.413 2.413 0 0 0-2.407-2.404zM4.729 4.294a2.495 2.495 0 1 0 2.496 2.494 2.492 2.492 0 0 0-2.496-2.494z"/></g></svg>