<svg xmlns="http://www.w3.org/2000/svg" viewBox="0 0 16 16" shape-rendering="geometricPrecision" fill="#6e6e6e"><path fill="#cb1800" d="M13.928 3.94 16 2.435h-2.561L12.648 0l-.791 2.435H9.295l2.072 1.505-.79 2.437 2.071-1.506 2.071 1.506z"/><path mask="url(#a)" d="m7.394 4.755-.816-1.923h-3.78l-.816 1.923H.861V14h14.278V4.755H7.394zm-1.226 8.237-.081-.852.736.293-.655.559zm1.272-1.08-1.443-.579L7.556 7.44 9 8.019l-1.56 3.893zm1.952-4.87-.233.58-1.444-.58.232-.578a.778.778 0 0 1 1.445.578z"/></svg>