<svg xmlns="http://www.w3.org/2000/svg" viewBox="0 0 16 16" shape-rendering="geometricPrecision" fill="#cb1800"><path d="m16 4.656-1.722-1.721L16 1.214 14.789.001l-1.723 1.721L11.344.001l-1.212 1.212 1.722 1.721-1.724 1.722 1.215 1.214 1.722-1.723 1.722 1.723z"/><g mask="url(#a)"><path d="M14.182 12.821 8.715 7.353l-.834-.833-.833.833-.718.718-.834.834.834.833 5.467 5.467.834.834.833-.834.718-.718.834-.834-.834-.832zm-5.514-2.186L6.921 8.887l.943-.943 1.747 1.747-.943.944zm-5.56-1.787-.507 1.357-1.357.506 1.357.507.507 1.357.507-1.357 1.357-.507-1.357-.506zm1.83-3.588.715-1.915 1.914-.715-1.914-.715L4.938 0l-.716 1.915-1.914.715 1.914.715zm5.646.882.47-1.257 1.256-.469-1.256-.47-.47-1.256-.469 1.256-1.256.47 1.256.469z"/></g></svg>