<svg xmlns="http://www.w3.org/2000/svg" viewBox="0 0 16 16" shape-rendering="geometricPrecision" fill="#fff"><path d="M12.971 1.607c-1.315 0-2.454.74-3.029 1.825a3.425 3.425 0 0 0 6.058 0 3.43 3.43 0 0 0-3.029-1.825z" fill="#cb1800"/><g mask="url(#a)"><path d="M13.125 5.495v8h-12v-8h12m1-1h-14v10h14v-10z"/><path d="m7.175 2.995-.299-1.49h-4l-.3 1.49H1.375v1h13.5v9.5l1-1v-9.5zm-1.601 9.579.574-.49-.646-.258z"/><path d="M5.422 11.117 6.793 7.7l1.268.508-1.37 3.417zm2.6-4.651a.684.684 0 0 0-.887.376l-.204.508 1.269.509.204-.509h-.001a.681.681 0 0 0-.381-.884z"/></g></svg>