<svg xmlns="http://www.w3.org/2000/svg" viewBox="0 0 16 16" shape-rendering="geometricPrecision" fill="#cb1800"><path d="M12.997 1.611a3.394 3.394 0 0 0-3.003 1.81 3.397 3.397 0 0 0 6.006 0 3.398 3.398 0 0 0-3.003-1.81zm-.001 3.396a1.587 1.587 0 1 1 0-3.174 1.587 1.587 0 0 1 0 3.174z"/><g mask="url(#a)"><path d="M4.628 7.063 3.381 8.311l3.648 3.651 3.652-3.651-1.246-1.248-2.404 2.402z"/><path d="M13.125 5.495v8h-12v-8h12m1-1h-14v10h14v-10z"/><path d="m7.175 2.995-.299-1.49h-4l-.3 1.49H1.375v1h13.5v9.5l1-1v-9.5z"/></g></svg>