<svg xmlns="http://www.w3.org/2000/svg" viewBox="0 0 16 16" shape-rendering="geometricPrecision"><path fill="#cb1800" d="M15.586 1.33 14.258 0l-3.229 3.228L9.34 1.539 8.013 2.867l3.018 3.019z"/><g mask="url(#a)"><path d="M11.348 7.312a1.992 1.992 0 0 1 1.779 1.146V4.747H9.053a1.978 1.978 0 0 0 1.081-1.737 1.992 1.992 0 0 0-3.982-.04 1.978 1.978 0 0 0 1.077 1.777H2.873v10.254h2.951a1.992 1.992 0 1 1 2.905-1.747 1.992 1.992 0 0 1-1.083 1.747h5.481v-4.845a1.992 1.992 0 0 1-3.792-.873 1.992 1.992 0 0 1 2.013-1.971z"/></g></svg>