<svg width="16" height="16" xmlns="http://www.w3.org/2000/svg" viewBox="0 0 16 16" shape-rendering="geometricPrecision" fill="#28497c"><defs><mask id="a"><rect fill="#fff" width="100%" height="100%"/><path fill="#000" d="m16.383 1.058-2.47-2.473-4.51 4.512 4.511 4.506 2.469-2.469-2.035-2.039z"/></mask></defs><path fill="#cb1800" d="m12.935 3.095 2.035-2.037L13.913 0l-3.096 3.097 3.096 3.092 1.057-1.056z"/><g mask="url(#a)"><path d="M13.125 5.495v8h-12v-8h12m1-1h-14v10h14v-10z"/><path d="m7.175 2.995-.299-1.49h-4l-.3 1.49H1.375v1h13.5v9.5l1-1v-9.5z"/><path d="M7.125 6.354 4.137 9.431h.487v2.906h1.641v-2.273h1.719v2.273h1.643V9.431h.486z"/></g></svg>
