<svg xmlns="http://www.w3.org/2000/svg" viewBox="0 0 16 16" shape-rendering="geometricPrecision" fill="#24437c"><path d="M12.971 1.607c-1.315 0-2.454.74-3.029 1.825a3.425 3.425 0 0 0 6.058 0 3.43 3.43 0 0 0-3.029-1.825z" fill="#cb1800"/><g mask="url(#a)"><path d="M2.271.963v13.971H13.73V.963H2.271zm5.745 1.633a2.664 2.664 0 0 1 2.665 2.665 2.66 2.66 0 0 1-2.665 2.666 2.665 2.665 0 1 1 0-5.331zm4.533 11.497H3.484v-2.996a2.308 2.308 0 0 1 2.301-2.306h4.457a2.315 2.315 0 0 1 2.308 2.306v2.996z"/></g></svg>