<svg xmlns="http://www.w3.org/2000/svg" viewBox="0 0 16 16" shape-rendering="geometricPrecision" fill="#24437c"><path d="m13.848-.04-.736.735.821.821h-.234l-.156.008A3.722 3.722 0 0 0 9.98 5.235v.237h1.126v-.237c0-.691.27-1.343.759-1.833a2.579 2.579 0 0 1 1.833-.759h.3l-.886.887.735.734L16 2.111 13.848-.04z" fill="#cb1800"/><g mask="url(#a)"><path d="M3.01 2.578 4.589 1l3.039 3.038L10.668 1l1.578 1.578-4.621 4.619zm-.99 7.127V16h11.148V9.684l-5.589 4.497L2.02 9.705zm0-1.607v.016l5.559 4.499 5.589-4.494v-.021H2.02z"/></g></svg>