<svg xmlns="http://www.w3.org/2000/svg" viewBox="0 0 16 16" shape-rendering="geometricPrecision" fill="#00962d"><path d="m11.686 6.423.6-.513-.675-.269zM14.245.038a.714.714 0 0 0-.927.393l-.213.531 1.326.532.214-.532h-.001a.714.714 0 0 0-.399-.924zM11.527 4.9l1.433-3.573 1.325.532-1.433 3.572z" fill="#cb1800"/><g mask="url(#a)"><path d="M14.814 2.331 12.486-.001 7.999 4.485 3.511-.001l-2.326 2.33 6.818 6.814 6.811-6.812zM7.999 11.34 3.511 6.854l-2.326 2.33L8.003 16l6.811-6.814-2.328-2.331-4.487 4.485z"/></g></svg>