<svg xmlns="http://www.w3.org/2000/svg" viewBox="0 0 16 16" shape-rendering="geometricPrecision" fill="#00962d"><path d="m11.686 6.423.6-.513-.675-.269zM14.245.038a.714.714 0 0 0-.927.393l-.213.531 1.326.532.214-.532h-.001a.714.714 0 0 0-.399-.924zM11.527 4.9l1.433-3.573 1.325.532-1.433 3.572z" fill="#cb1800"/><g mask="url(#a)"><path d="M7.999 1a7 7 0 1 0 .003 14 7 7 0 0 0-.003-14zm3.423 9.054-1.448 1.45-2.055-2.057-2.058 2.058-1.451-1.45 2.059-2.058-2.057-2.056L5.86 4.493 7.917 6.55l2.058-2.057 1.448 1.45-2.057 2.056 2.056 2.055z"/></g></svg>