<svg xmlns="http://www.w3.org/2000/svg" viewBox="0 0 16 16" shape-rendering="geometricPrecision" fill="#00962d"><path d="m11.686 6.423.6-.513-.675-.269zM14.245.038a.714.714 0 0 0-.927.393l-.213.531 1.326.532.214-.532h-.001a.714.714 0 0 0-.399-.924zM11.527 4.9l1.433-3.573 1.325.532-1.433 3.572z" fill="#cb1800"/><g mask="url(#a)"><path d="M14.479 9.852V8.649h-2.566V1.632H6.599L3.896 4.124v4.525H1.569v1.202H.966v4.518h14.069V9.852h-.556zM6.645 2.73v1.403H5.121L6.645 2.73zM4.635 5h2.88V2.321h3.604v8.377H4.635V5zm8.237 6.546a.711.711 0 1 1 0-1.422.711.711 0 0 1 0 1.422z"/><path d="M5.624 5.738h4.57v.866h-4.57zm0 1.625h4.57v.866h-4.57z"/></g></svg>