<svg xmlns="http://www.w3.org/2000/svg" viewBox="0 0 54 54"><path d="M11.72 24.63a6.16 6.16 0 1 0-6.15-6.16 6.15 6.15 0 0 0 6.15 6.16zm2.79 2.92H8.9A5.94 5.94 0 0 0 3 33.49v7.71h17.43v-7.71a6 6 0 0 0-5.92-5.94zm27.77 4.37a6.16 6.16 0 1 0-6.14-6.15 6.15 6.15 0 0 0 6.14 6.15zm2.8 2.93h-5.61a5.92 5.92 0 0 0-5.9 5.93v7.72H51v-7.72a6 6 0 0 0-5.92-5.93zM25.3 17.82a6.16 6.16 0 1 0-6.14-6.16 6.15 6.15 0 0 0 6.14 6.16z" fill="#ffad00"/><path d="M34 34.39v-7.72a6 6 0 0 0-5.92-5.93h-5.59a5.91 5.91 0 0 0-5.88 5.7 7.38 7.38 0 0 1 5.28 7.05v.9z" fill="#ffad00"/></svg>