<svg xmlns="http://www.w3.org/2000/svg" viewBox="0 0 64 64"><path fill="none" d="M0 0h64v64H0z"/><g fill="#ffad00"><path d="M18 4.04c-3.87 0-7 3.13-7 7V53.4c0 3.67 2.97 6.64 6.64 6.64H46v-45.5H18.07c-1.97 0-3.57-1.6-3.57-3.57s1.53-3.43 3.43-3.43H49.5v42.09H53V4.04H18Zm0 14h24.5v38.5H18.01c-1.94 0-3.51-1.57-3.51-3.51V16.8s1.12 1.24 3.5 1.24Z"/><path d="M29.14 45.8c-2.59 0-4.44 1.84-4.44 4.53s1.79 4.54 4.39 4.54h.05c2.7 0 4.5-1.94 4.5-4.54-.04-2.69-1.8-4.53-4.5-4.53Zm.7-25.71c-3.54 0-6.49 1-8.33 2.05l1.7 5.43c1.29-.9 3.29-1.49 4.94-1.49 2.5.1 3.64 1.25 3.64 2.99s-1.3 3.3-2.9 5.24c-2.25 2.65-3.09 5.24-2.94 7.79l.05 1.3h6.64v-.9c-.05-2.25.7-4.21 2.55-6.24 1.9-2.1 4.24-4.6 4.24-8.39 0-4.14-3-7.78-9.58-7.78Z"/></g></svg>