<svg xmlns="http://www.w3.org/2000/svg" viewBox="0 0 54 54"><path d="M17 22.07a12.38 12.38 0 1 1 17.58 11.48l1.41.57 8.28-2.83A17.37 17.37 0 1 0 12 22.34v.36z" fill="#ffad00"/><path d="M50.78 35.93a3.72 3.72 0 0 0-3.5-2.51 3.62 3.62 0 0 0-1.25.22l-10.21 3.55-13.69-5.63 8.73-1.19A3.71 3.71 0 0 0 30.4 23h-.46l-19.86 2.56a3.68 3.68 0 0 0-1.51.57 2.25 2.25 0 0 0-1.24 1.27l-.18.49c-.05.13-.1.25-.14.38L3.14 38.76a2.22 2.22 0 0 0 .18 1.92c.91 2 5.16 4.86 9.09 6.35l9.44 1.79a8.64 8.64 0 0 0 1.4.12h.45a3.81 3.81 0 0 0 .59 0 3.37 3.37 0 0 0 1.2-.21l1.51-.5c.4-.12.82-.25 1.29-.41 5.15-1.66 10.9-3.7 13-4.56h.07l7.08-2.47a3.79 3.79 0 0 0 2.34-4.86z" fill="#ffad00"/></svg>