<svg xmlns="http://www.w3.org/2000/svg" viewBox="0 0 16 16" shape-rendering="geometricPrecision" fill="#ffad00"><path d="M13.114 2.537h2.538L15.651 0h-.867v1.105c-1.204-.927-2.924-.863-4.016.227-1.187 1.188-1.162 3.119.035 4.317 1.201 1.198 3.131 1.224 4.319.037A2.996 2.996 0 0 0 16 3.558l-.859.001a2.137 2.137 0 0 1-.627 1.521c-.843.842-2.231.836-3.104-.036-.871-.872-.877-2.26-.035-3.105.729-.727 1.86-.818 2.721-.268h-.983l.001.866z" fill="#cb1800"/><g mask="url(#a)"><path d="M3.176 8.302 0 11.479l1.651 1.651 4.83-4.833-4.83-4.825L0 5.121l3.176 3.181zM16 .605H7.144v14.096h1.067V1.671l4.057.002-2.67.764v13.562l6.399-1.831V1.674H16V.605z"/></g></svg>