<svg xmlns="http://www.w3.org/2000/svg" viewBox="0 0 16 16" shape-rendering="geometricPrecision" fill="#ffad00"><path d="M13.114 2.537h2.538L15.651 0h-.867v1.105c-1.204-.927-2.924-.863-4.016.227-1.187 1.188-1.162 3.119.035 4.317 1.201 1.198 3.131 1.224 4.319.037A2.996 2.996 0 0 0 16 3.558l-.859.001a2.137 2.137 0 0 1-.627 1.521c-.843.842-2.231.836-3.104-.036-.871-.872-.877-2.26-.035-3.105.729-.727 1.86-.818 2.721-.268h-.983l.001.866z" fill="#cb1800"/><g mask="url(#a)"><path d="M13.125 5.495v8h-12v-8h12m1-1h-14v10h14v-10z"/><path d="m7.175 2.995-.299-1.49h-4l-.3 1.49H1.375v1h13.5v9.5l1-1v-9.5zm-1.601 9.579.574-.49-.646-.258z"/><path d="M5.422 11.117 6.793 7.7l1.268.508-1.37 3.417zm2.6-4.651a.684.684 0 0 0-.887.376l-.204.508 1.269.509.204-.509h-.001a.681.681 0 0 0-.381-.884z"/></g></svg>