<svg xmlns="http://www.w3.org/2000/svg" viewBox="0 0 16 16" shape-rendering="geometricPrecision" fill="#ffad00"><path d="M13.114 2.537h2.538L15.651 0h-.867v1.105c-1.204-.927-2.924-.863-4.016.227-1.187 1.188-1.162 3.119.035 4.317 1.201 1.198 3.131 1.224 4.319.037A2.996 2.996 0 0 0 16 3.558l-.859.001a2.137 2.137 0 0 1-.627 1.521c-.843.842-2.231.836-3.104-.036-.871-.872-.877-2.26-.035-3.105.729-.727 1.86-.818 2.721-.268h-.983l.001.866z" fill="#cb1800"/><g mask="url(#a)"><path d="m15.432 12.94-3.595-3.593-.356-.356c1.227-2.3.901-5.215-1.039-7.157a6.09 6.09 0 0 0-8.609.003 6.085 6.085 0 0 0 .002 8.605c1.939 1.939 4.855 2.267 7.158 1.037l3.952 3.952a1.757 1.757 0 0 0 2.486 0c.69-.687.69-1.8.001-2.491zM3.104 9.17a4.286 4.286 0 0 1 .001-6.062 4.285 4.285 0 0 1 6.064-.005A4.29 4.29 0 0 1 3.104 9.17z"/></g></svg>