<svg xmlns="http://www.w3.org/2000/svg" viewBox="0 0 16 16" shape-rendering="geometricPrecision"><path d="m16 4.656-1.722-1.721L16 1.214 14.789.001l-1.723 1.721L11.344.001l-1.212 1.212 1.722 1.721-1.724 1.722 1.215 1.214 1.722-1.723 1.722 1.723z" fill="#cb1800"/><g mask="url(#a)"><path d="m8.182 3.179-.815-1.923h-3.78L2.77 3.179H1.649l.001.949 13.327-.009.018 9.283.933-.978V3.179z"/><path d="M.072 4.756V14h14.279V4.756H.072zm5.222 8.236-.082-.852.736.293-.654.559zm1.271-1.08-1.443-.579L6.681 7.44l1.444.579-1.56 3.893zm1.952-4.87-.233.58-1.444-.58.232-.578a.778.778 0 0 1 1.445.578z"/></g></svg>