<svg width="16" height="16" xmlns="http://www.w3.org/2000/svg" viewBox="0 0 54 54"><path d="M10 3v48h22.6a6 6 0 0 0 4.28-1.79l5.39-5.48A6 6 0 0 0 44 39.49V3Zm3.09 3.09h27.82V36a3 3 0 0 1-3 3H32v5.91a3 3 0 0 1-3 3H13.09ZM35 46.68V42h4.64Z" fill="#6e6e6e"/><path fill="#6e6e6e" d="M19.14 17.91H16v6.28h3.14l4.72 3.15h1.57V14.76h-1.57l-4.72 3.15zm10.59-4.23-2.06 2.06a7.4 7.4 0 0 1 0 10.46l2.06 2.06a10.3 10.3 0 0 0 0-14.58Z"/><path d="m33.44 10-2.06 2a12.63 12.63 0 0 1 0 17.88L33.44 32a15.55 15.55 0 0 0 0-22Z" fill="#6e6e6e"/></svg>