<svg xmlns="http://www.w3.org/2000/svg" viewBox="0 0 64 64"><path fill="none" d="M0 0h64v64H0z"/><path d="M18 4.04c-3.87 0-7 3.13-7 7V53.4c0 3.67 2.97 6.64 6.64 6.64H46v-45.5H18.07c-1.97 0-3.57-1.6-3.57-3.57s1.53-3.43 3.43-3.43H49.5v42H53V4.04H18Zm11 51.89h-.05c-2.64 0-4.46-1.98-4.46-4.62s1.87-4.6 4.51-4.6 4.53 1.87 4.57 4.6c0 2.64-1.83 4.62-4.57 4.62Zm.72-35.36c6.7 0 9.74 3.7 9.74 7.91 0 3.86-2.38 6.39-4.31 8.53-1.88 2.07-2.64 4.06-2.59 6.35v.91h-6.75l-.05-1.32c-.15-2.59.7-5.23 2.99-7.92 1.63-1.98 2.95-3.6 2.95-5.33s-1.17-2.94-3.7-3.04c-1.68 0-3.71.61-5.02 1.52l-1.73-5.52c1.88-1.07 4.87-2.08 8.47-2.08Z" fill="#6e6e6e"/></svg>