<svg viewBox="0 0 16 16" xmlns="http://www.w3.org/2000/svg" xml:space="preserve" fill-rule="evenodd" clip-rule="evenodd" stroke-linejoin="round" stroke-miterlimit="2"><path d="M14.254 12.801s-1.107 0-1.263-1.004a664.973 664.973 0 0 1-.822-5.658h-.008a4.236 4.236 0 0 0-3.134-3.37c.002-.025.015-.048.015-.074 0-.582-.479-1.061-1.06-1.061-.58 0-1.059.48-1.059 1.061 0 .03.015.055.018.085a4.233 4.233 0 0 0-3.102 3.36h-.008s-.623 4.176-.825 5.677c-.131.985-1.26.985-1.26.985v1.285h2.653c.247.745.94 1.284 1.765 1.284s1.519-.54 1.765-1.284h6.324V12.8h.001z" fill="#6e6e6e" fill-rule="nonzero"/></svg>