<svg width="16" height="16" xmlns="http://www.w3.org/2000/svg" viewBox="0 0 54 54"><path d="M26.72 34.54a3.74 3.74 0 0 0-3.87 3.94 3.76 3.76 0 0 0 3.83 4 3.79 3.79 0 0 0 3.92-4 3.75 3.75 0 0 0-3.88-3.94Zm.61-22.41a15.07 15.07 0 0 0-7.26 1.79l1.48 4.74a8.21 8.21 0 0 1 4.31-1.3C28 17.44 29 18.44 29 20s-1.13 2.88-2.53 4.57a9.42 9.42 0 0 0-2.56 6.79v1.13h5.79v-.78a7.43 7.43 0 0 1 2.3-5.48c1.65-1.83 3.69-4 3.69-7.31-.01-3.61-2.62-6.79-8.36-6.79ZM27 8A19 19 0 1 1 8 27 19 19 0 0 1 27 8m0-5a24 24 0 1 0 24 24A24 24 0 0 0 27 3Z" fill="#6e6e6e"/></svg>