<svg viewBox="0 0 16 16" xmlns="http://www.w3.org/2000/svg" xml:space="preserve" fill-rule="evenodd" clip-rule="evenodd" stroke-linejoin="round" stroke-miterlimit="2"><path d="M13.766 4.022H2.2v7.956h11.567V4.022zM3.758 10.629c0-.822.233-1.232.563-1.232.375 0 .552.453.552 1.217 0 .198-.014.37-.038.52H3.796a3.113 3.113 0 0 1-.038-.505zm1.918.506h-.224c.029-.165.048-.34.048-.536 0-.97-.37-1.68-1.164-1.68-.77 0-1.205.684-1.205 1.715 0 .18.02.346.048.5h-.135V4.868h2.634l-.002 6.267zm3.578 0H6.522V4.869h2.732v6.266zm3.667 0h-2.825V4.869h2.825v6.266zM1.029 5.81h.846v4.51h-.846V5.81zm13.098 0h.844v4.51h-.844V5.81z" fill="#6e6e6e" fill-rule="nonzero"/><path d="M8.13 8.362h.588v-.837h.426v-.472h-.426V5.068h-.735L6.635 7.12v.405H8.13v.837zm-.897-1.308v-.01l.609-.902c.1-.183.187-.35.288-.558h.02c-.01.199-.02.387-.02.574v.896h-.897zm5.417 3.277h-1.348v-.01l.283-.248c.576-.534.993-.999.993-1.577 0-.536-.354-.997-1.085-.997-.416 0-.775.146-1.013.34l.182.44c.166-.126.411-.275.705-.275.43 0 .587.26.587.553-.005.436-.37.83-1.144 1.55l-.391.36v.38h2.23v-.516z" fill="#6e6e6e" fill-rule="nonzero"/></svg>