<svg xmlns="http://www.w3.org/2000/svg" viewBox="0 0 64 64"><path fill="none" d="M0 0h64v64H0z"/><g fill="#28497c"><path d="M32 4C16.54 4 4 16.54 4 32s12.54 28 28 28 28-12.54 28-28S47.46 4 32 4Zm0 50c-12.13 0-22-9.87-22-22s9.87-22 22-22 22 9.87 22 22-9.87 22-22 22Z"/><path d="M15.96 21.55h12.59v3.12h-8.88v5.36h7.53v3.12h-7.53v6.19h9.2v3.12H15.96V21.53Zm16.41 0h3.81l6.5 11.76 2.16 4.47h.13c-.18-2.16-.47-4.81-.47-7.14v-9.09h3.53v20.93h-3.81l-6.5-11.78-2.16-4.45h-.13c.18 2.21.47 4.74.47 7.06v9.16h-3.53V21.54Z"/></g></svg>