<svg xmlns="http://www.w3.org/2000/svg" viewBox="0 0 64 64"><path fill="none" d="M0 0h64v64H0z"/><g fill="#28497c"><path d="M32 4C16.54 4 4 16.54 4 32s12.54 28 28 28 28-12.54 28-28S47.46 4 32 4Zm0 50c-12.13 0-22-9.87-22-22s9.87-22 22-22 22 9.87 22 22-9.87 22-22 22Z"/><path d="M16.3 21.55h5.58c6.41 0 10.2 3.46 10.2 10.38s-3.79 10.55-10.01 10.55H16.3V21.55Zm5.34 17.92c4.21 0 6.63-2.39 6.63-7.54s-2.42-7.37-6.63-7.37h-1.63v14.91h1.63Zm14.17-17.92H48.4v3.12h-8.88v5.36h7.53v3.12h-7.53v6.19h9.2v3.12H35.81V21.53Z"/></g></svg>