<svg xmlns="http://www.w3.org/2000/svg" viewBox="0 0 16 16" shape-rendering="geometricPrecision" fill="#6e6e6e"><path fill="#cb1800" d="m12.935 3.095 2.035-2.037L13.913 0l-3.096 3.097 3.096 3.092 1.057-1.056z"/><g mask="url(#a)"><path d="M7.983 8.903 3.694 6.274.793 8.596c.046.096 4.25 2.737 4.25 2.737L7.98 9.125l3.028 2.206 4.352-2.617-3.1-2.494-4.277 2.683z"/><path d="m7.98 9.955-2.927 2.197-1.455-.813v.83l4.4 2.786 4.366-2.786v-.83l-1.37.813zm3.104-8.91L7.98 3.59l4.28 2.628 3.102-2.426zM.638 3.928 3.702 6.27 7.98 3.59 5.041 1.047zM12.259 6.22v-.001h.001v.001z"/></g></svg>