<svg xmlns="http://www.w3.org/2000/svg" viewBox="0 0 16 16" shape-rendering="geometricPrecision" fill="#6e6e6e"><path fill="#cb1800" d="m12.935 3.095 2.035-2.037L13.913 0l-3.096 3.097 3.096 3.092 1.057-1.056z"/><g mask="url(#a)"><path d="M8.001 1.062a6.94 6.94 0 1 0 0 13.878 6.94 6.94 0 0 0 0-13.878zm0 12.472a5.543 5.543 0 0 1-5.536-5.531 5.544 5.544 0 0 1 5.536-5.537 5.543 5.543 0 0 1 5.534 5.537 5.54 5.54 0 0 1-5.534 5.531z"/><path d="M8.001 12.673a4.68 4.68 0 0 1-4.674-4.67 4.682 4.682 0 0 1 4.674-4.676 4.68 4.68 0 0 1 4.672 4.675 4.679 4.679 0 0 1-4.672 4.671z"/></g></svg>