<svg xmlns="http://www.w3.org/2000/svg" shape-rendering="geometricPrecision" fill="#cb1800" viewBox="0 0 16 16"><path d="m11.686 6.423.6-.513-.675-.269zM14.245.038a.714.714 0 0 0-.927.393l-.213.531 1.326.532.214-.532h-.001a.714.714 0 0 0-.399-.924zM11.527 4.9l1.433-3.573 1.325.532-1.433 3.572z"/><g mask="url(#a)"><path d="M4.275.072v7.41h7.37V.072zm3.707.88c.96-.04.96 1.42 0 1.38-.88-.038-.88-1.342 0-1.38zM6.596 3.039h2.066v2.617h.68v.686H6.594v-.686h.68V3.552h-.678zM-.002 8.83V16H16V8.84zm1.088 1.008 13.826.006v5.151H1.086z"/><path d="M2.964 11v1h10v-.999zm0 2v1h10v-.999z"/></g></svg>