<svg xmlns="http://www.w3.org/2000/svg" viewBox="0 0 16 16" shape-rendering="geometricPrecision" fill="#cb1800"><path d="m11.686 6.423.6-.513-.675-.269zM14.245.038a.714.714 0 0 0-.927.393l-.213.531 1.326.532.214-.532h-.001a.714.714 0 0 0-.399-.924zM11.527 4.9l1.433-3.573 1.325.532-1.433 3.572z"/><g mask="url(#a)"><path d="M1.034 2.913v10.174h13.932V2.913H1.034zm4.079 1.445a1.78 1.78 0 0 1 1.781 1.783c0 .986-.795 1.781-1.781 1.781a1.783 1.783 0 0 1 0-3.564zm3.03 7.686H2.084v-2.002c0-.848.69-1.541 1.538-1.541h2.979c.848 0 1.542.693 1.542 1.541v2.002zm5.225-4.139H9.075V6.847h4.293v1.058zm0-2.197H9.075V4.643h4.293v1.065z"/></g></svg>