<svg xmlns="http://www.w3.org/2000/svg" viewBox="0 0 16 16" shape-rendering="geometricPrecision" fill="#6e6e6e"><path d="m16 4.656-1.722-1.721L16 1.214 14.789.001l-1.723 1.721L11.344.001l-1.212 1.212 1.722 1.721-1.724 1.722 1.215 1.214 1.722-1.723 1.722 1.723z" fill="#cb1800"/><g mask="url(#a)"><path d="m10.021 15.177 3.437-3.165h-3.437z"/><path d="M2.02 0v16h7.021v-4.905h4.941V0H2.02zM13 9.97H8v5H3.083v-14H13v9z"/><path d="M9.479 9.017 8.057 6.538 6.646 9.017H5.008l2.277-3.648-2.133-3.47H6.78l1.277 2.299 1.288-2.299h1.617L8.83 5.368l2.287 3.648H9.479z"/></g></svg>