<svg xmlns="http://www.w3.org/2000/svg" viewBox="0 0 16 16" shape-rendering="geometricPrecision" fill="#6e6e6e"><path d="m16 4.656-1.722-1.721L16 1.214 14.789.001l-1.723 1.721L11.344.001l-1.212 1.212 1.722 1.721-1.724 1.722 1.215 1.214 1.722-1.723 1.722 1.723z" fill="#cb1800"/><g mask="url(#a)"><path d="M10.479 0a5.521 5.521 0 0 0-5.521 5.521c0 .739.152 1.44.416 2.084L0 12.979V16h3.021v-2.042h1.958V12h2.042V9.821a5.496 5.496 0 0 0 3.458 1.221 5.521 5.521 0 0 0 0-11.042zm1.294 6.812a2.586 2.586 0 1 1 0-5.173 2.586 2.586 0 0 1 0 5.173z"/></g></svg>