<svg xmlns="http://www.w3.org/2000/svg" viewBox="0 0 16 16" shape-rendering="geometricPrecision" fill="#cb1800"><path d="M13.114 2.537h2.538L15.651 0h-.867v1.105c-1.204-.927-2.924-.863-4.016.227-1.187 1.188-1.162 3.119.035 4.317 1.201 1.198 3.131 1.224 4.319.037A2.996 2.996 0 0 0 16 3.558l-.859.001a2.137 2.137 0 0 1-.627 1.521c-.843.842-2.231.836-3.104-.036-.871-.872-.877-2.26-.035-3.105.729-.727 1.86-.818 2.721-.268h-.983l.001.866z"/><g mask="url(#a)"><path d="M6.799 3.47 6.5 1.979h-4L2.2 3.47H.999v10h14v-10h-8.2zm7.201 9H2v-8h12v8z"/><path d="m6.685 11.616.575-.49-.646-.258zm-.151-1.457 1.37-3.418 1.268.509-1.37 3.417zm2.599-4.651a.683.683 0 0 0-.886.376l-.204.508 1.268.509.205-.509h-.001a.682.682 0 0 0-.382-.884z"/></g></svg>