<svg xmlns="http://www.w3.org/2000/svg" viewBox="0 0 16 16" shape-rendering="geometricPrecision"><path d="M12.997 1.611a3.394 3.394 0 0 0-3.003 1.81 3.397 3.397 0 0 0 6.006 0 3.398 3.398 0 0 0-3.003-1.81zm-.001 3.396a1.587 1.587 0 1 1 0-3.174 1.587 1.587 0 0 1 0 3.174z" fill="#cb1800"/><g mask="url(#a)"><path d="M2.131 11.885V7.242l2.654 2.654 3.757-3.758 1.98 1.981 3.566-3.565-.92-.919-2.645 2.641-1.06-1.059.009-.009-.92-.92-3.768 3.765L2.14 5.411l-.009.01V3.738H1.037v9.242l.797-.002v.002h13.129v-1.095z"/></g></svg>