<svg xmlns="http://www.w3.org/2000/svg" viewBox="0 0 16 16" shape-rendering="geometricPrecision" fill="#cb1800"><path d="M12.971 1.607c-1.315 0-2.454.74-3.029 1.825a3.425 3.425 0 0 0 6.058 0 3.43 3.43 0 0 0-3.029-1.825z"/><g mask="url(#a)"><path d="M6.799 3.47 6.5 1.979h-4L2.2 3.47H.999v10h14v-10h-8.2zm7.201 9H2v-8h12v8z"/><path d="M6.919 7.07a1.09 1.09 0 1 1 2.183 0v.542h.667V7.07a1.759 1.759 0 1 0-3.517 0v.542h.667V7.07zM5.68 8.076v3.401h4.66V8.076H5.68zm2.741 2.266a.41.41 0 0 1-.821 0v-1.13a.41.41 0 0 1 .821 0v1.13z"/></g></svg>