<svg xmlns="http://www.w3.org/2000/svg" viewBox="0 0 16 16" shape-rendering="geometricPrecision" fill="#00962d"><path d="m13.848-.04-.736.735.821.821h-.234l-.156.008A3.722 3.722 0 0 0 9.98 5.235v.237h1.126v-.237c0-.691.27-1.343.759-1.833a2.579 2.579 0 0 1 1.833-.759h.3l-.886.887.735.734L16 2.111 13.848-.04z" fill="#cb1800"/><g mask="url(#a)"><path d="M11.17 3.472 9.519 5.124l3.176 3.178-3.176 3.179 1.651 1.65L16 8.305zM0 1.671l.001 12.497L6.4 15.999V2.435l-2.672-.764h4.061v13.03h1.066V.604H0v1.067zm1 .235 4.4 1.282v11.564L1 13.47V1.906z"/></g></svg>