<svg xmlns="http://www.w3.org/2000/svg" viewBox="0 0 54 54"><g fill="#28497c"><path d="M27 17a20.39 20.39 0 0 1 17.57 10 20.39 20.39 0 0 1-35.14 0A20.35 20.35 0 0 1 27 17m0-3A23.36 23.36 0 0 0 6.31 26.42L6 27l.3.58a23.4 23.4 0 0 0 41.37 0L48 27l-.31-.57A23.36 23.36 0 0 0 27 14z"/><path d="M27 19.08a7.9 7.9 0 0 0-2.19.35 3.6 3.6 0 0 1 1.58 2.93A3.67 3.67 0 0 1 22.72 26a3.6 3.6 0 0 1-3.1-1.83A7.9 7.9 0 1 0 27 19.08zM6 5.91h9v3H6z"/><path d="M6 5.91h3v9H6zm32.99 0h9v3h-9zm6 3h3v6h-3zm0 29.98h3v9h-3z"/><path d="M38.99 44.89h9v3h-9zM6 38.89h3v9H6z"/><path d="M6 44.89h9v3H6z"/></g></svg>