<?xml version="1.0" encoding="UTF-8"?>
<svg id="Ebene_2" data-name="Ebene 2" xmlns="http://www.w3.org/2000/svg" viewBox="0 0 64 64">
  <defs>
    <style>
      .cls-1 {
        fill: none;
      }

      .cls-1, .cls-2 {
        stroke-width: 0px;
      }

      .cls-2 {
        fill: #28497c;
      }
    </style>
  </defs>
  <g id="Viewbox_64x64" data-name="Viewbox 64x64">
    <rect class="cls-1" width="64" height="64"/>
  </g>
  <g id="accessability">
    <g id="contrast">
      <g>
        <path class="cls-2" d="m32.49,14.02c-.16,0-.32-.02-.48-.02h0s0,0-.01,0c-9.94,0-18,8.06-18,18s8.06,18,18,18,18-8.06,18-18-7.8-17.71-17.51-17.98Zm-.49,29.98c-6.62,0-12-5.38-12-12s5.38-12,12-12c0,0,0,0,.01,0v24s-.01,0-.01,0Z"/>
        <circle class="cls-2" cx="32" cy="7" r="3"/>
        <circle class="cls-2" cx="32" cy="57" r="3"/>
        <circle class="cls-2" cx="7" cy="32" r="3"/>
        <circle class="cls-2" cx="57" cy="32" r="3"/>
        <circle class="cls-2" cx="14.32" cy="14.32" r="3"/>
        <circle class="cls-2" cx="49.68" cy="49.68" r="3"/>
        <circle class="cls-2" cx="14.32" cy="49.68" r="3"/>
        <circle class="cls-2" cx="49.68" cy="14.32" r="3"/>
      </g>
    </g>
  </g>
</svg>