<svg width="16" height="16" xmlns="http://www.w3.org/2000/svg" viewBox="0 0 54 54"><defs><style>.a{fill:#28497c;}</style></defs><path class="a" d="M44.94,9a6.44,6.44,0,0,1-.87,3.82L43.37,14H46V42H8V14H28L30.67,9.5,31,9H3V47H51V9Z"/><polygon class="a" points="26.26 16.97 10.96 16.97 10.96 38.97 20.08 38.97 20.06 36.99 19.96 28.21 19.96 27.65 20.24 27.17 26.26 16.97"/><polygon class="a" points="31.71 33.74 31.43 34.22 30.93 34.48 23.01 38.73 22.56 38.97 42.96 38.97 42.96 16.97 41.6 16.97 31.71 33.74"/><path class="a" d="M22.06,37,30,32.72,40.41,15.05l1.16-2,.77-1.31a4.48,4.48,0,0,0-1.69-6.19,4.69,4.69,0,0,0-6.33,1.66l-.77,1.31-1.16,2L22,28.19ZM36.32,8.37a2.36,2.36,0,0,1,3.17-.83,2.25,2.25,0,0,1,.85,3.1L39.56,12l-4-2.27Zm-1.93,3.28,4,2.26L28.31,31l-1.46.78L24.3,30.38v-1.6Z"/></svg>