<?xml version="1.0" encoding="UTF-8"?>
<svg id="Ebene_2" data-name="Ebene 2" xmlns="http://www.w3.org/2000/svg" viewBox="0 0 64 64">
  <defs>
    <style>
      .cls-1 {
        fill: none;
      }

      .cls-1, .cls-2 {
        stroke-width: 0px;
      }

      .cls-2 {
        fill: #28497c;
      }
    </style>
  </defs>
  <g id="Viewbox_64x64" data-name="Viewbox 64x64">
    <rect class="cls-1" width="64" height="64"/>
  </g>
  <g id="accessability">
    <g id="easy-read">
      <g>
        <polygon class="cls-2" points="29.66 44.87 24.51 39.71 20.48 43.77 29.66 53 43.52 39.07 39.48 35 29.66 44.87"/>
        <path class="cls-2" d="m32.06,28c6.65,0,12-5.36,12-12s-5.36-12-12-12-12,5.37-12,12,5.38,12,12,12Zm0-18c3.31,0,6,2.69,6,6s-2.69,6-6,6-6-2.69-6-6,2.69-6,6-6Z"/>
        <path class="cls-2" d="m58,43c0-2.46-1.23-4.57-3-5.5v-11.5l-23,4.01-23-4.01v11.5c-1.77.93-3,3.04-3,5.5s1.23,4.57,3,5.5v7.49l23,4.01,23-4v-7.5c1.77-.93,3-3.04,3-5.5Zm-26,12.94l-19-3.31v-4.13c1.77-.93,3-3.04,3-5.5s-1.23-4.57-3-5.5v-6.75l18.31,3.19.69.12.69-.12,18.31-3.19v6.75c-1.77.93-3,3.04-3,5.5s1.23,4.57,3,5.5v4.14l-19,3.3Z"/>
      </g>
    </g>
  </g>
</svg>