<svg xmlns="http://www.w3.org/2000/svg" viewBox="0 0 54 54"><path d="M3 45.94h42v-30H3zm3-27h36v24H6z" fill="#28497c"/><path d="M30 10v-.06a3 3 0 0 0-3-3h-9a3 3 0 0 0-3 3V10H9v2.91h39V40h3V10z" fill="#28497c"/><path d="M27.65 35.48a.74.74 0 0 0-.37.1 5.25 5.25 0 1 1-3.4-9.78 5.1 5.1 0 0 1 .87-.07 5.33 5.33 0 0 1 1.33.17.63.63 0 0 0 .19 0 .74.74 0 0 0 .74-.84L26.63 22H15v18h13.87l-.47-3.84a.75.75 0 0 0-.75-.68zm-11.53 3.36V23.09h9.51l.2 1.61a6.47 6.47 0 0 0-1.08-.09 7.42 7.42 0 0 0-1.05.08 6.38 6.38 0 1 0 3.65 12.11l.25 2z" fill="#28497c"/><path d="m27.75 22 .62 5a.75.75 0 0 1-1.2.68 4 4 0 0 0-2.82-.76 4.12 4.12 0 0 0 .4 8.23 4.09 4.09 0 0 0 3.17-1.49.75.75 0 0 1 1.33.37c.33 2.61.75 6 .75 6h3V22z" fill="#28497c"/></svg>