<svg xmlns="http://www.w3.org/2000/svg" viewBox="0 0 54 54"><path d="M28 11V9.94a3 3 0 0 0-3-3H14a3 3 0 0 0-3 3V11H3v35h48V11zm20 32H6V13.94h42z" fill="#28497c"/><path d="M27 17a11.5 11.5 0 1 0 11.5 11.5A11.5 11.5 0 0 0 27 17zm.82 8.48c.8 0 1.63-.1 2.45-.2.06.75.11 1.55.13 2.4h-2.58zm0-1.63v-4.51a8.27 8.27 0 0 1 1.42.25 28.48 28.48 0 0 1 .84 4c-.75.13-1.52.19-2.26.23zm-1.64 0c-.72 0-1.48-.1-2.24-.19a27.44 27.44 0 0 1 .84-4 9.31 9.31 0 0 1 1.4-.24zm0 1.64v2.2h-2.55c0-.86.06-1.66.13-2.41.81.06 1.64.14 2.42.17zM22 27.65h-4.13a9.22 9.22 0 0 1 .93-3.26c.83.18 2 .42 3.33.63-.07.81-.13 1.69-.13 2.63zm0 1.64q0 1.5.15 2.79c-1.3.2-2.45.44-3.27.62a9.17 9.17 0 0 1-1-3.41zm1.63 0h2.56v2.37c-.79 0-1.61.1-2.42.19-.08-.79-.13-1.65-.15-2.56zm2.56 4v4.31a8.79 8.79 0 0 1-1.45-.25 28.54 28.54 0 0 1-.74-3.87c.69-.09 1.45-.16 2.18-.19zm1.64 0c.73 0 1.5.1 2.27.2a27.2 27.2 0 0 1-.79 3.84 9 9 0 0 1-1.48.26zm0-1.64v-2.36h2.59c0 .92-.07 1.78-.14 2.58-.83-.1-1.66-.18-2.46-.21zM32 29.29h4.09a9.22 9.22 0 0 1-1 3.42c-.82-.18-2-.41-3.24-.61.15-.86.15-1.8.15-2.81zm0-1.64c0-.93-.08-1.81-.15-2.63 1.32-.2 2.49-.44 3.31-.63a9 9 0 0 1 .93 3.26zm2.24-4.73c-.71.15-1.6.32-2.58.48a29 29 0 0 0-.58-3.11 9.15 9.15 0 0 1 3.2 2.63zm-11.35-2.64a31.56 31.56 0 0 0-.57 3.11c-1-.16-1.87-.33-2.6-.48a9.37 9.37 0 0 1 3.17-2.63zm-3.06 13.89c.7-.15 1.56-.31 2.5-.46.16 1.17.35 2.16.53 2.94a9.34 9.34 0 0 1-3.03-2.48zm11.35 2.45a28 28 0 0 0 .53-2.89c.91.15 1.76.31 2.46.45a9.18 9.18 0 0 1-2.99 2.44z" fill="#28497c"/></svg>