<svg width="16" height="16" xmlns="http://www.w3.org/2000/svg" viewBox="0 0 54 54"><path d="M3 45.94h42v-30H3Zm3-27h36v24H6Z" fill="#28497c"/><path d="M30 10v-.06a3 3 0 0 0-3-3h-9a3 3 0 0 0-3 3V10H9v2.91h39V40h3V10Z" fill="#28497c"/><path d="M28.68 22.31a2.71 2.71 0 0 0-3.62.94l-.44.73-.62 1.11L18 35l.06 5 4.53-2.39 5.95-9.94.66-1.11.44-.73a2.5 2.5 0 0 0-.96-3.52Zm-7.06 14.32-.83.44-1.45-.81v-.9l5.77-9.64L27.4 27Zm4.14-12 .45-.74a1.33 1.33 0 0 1 1.8-.46 1.25 1.25 0 0 1 .49 1.74l-.44.74Z" fill="#28497c"/></svg>