<?xml version="1.0" encoding="UTF-8"?><svg id="b" xmlns="http://www.w3.org/2000/svg" viewBox="0 0 55.98 55.98"><defs><style>.e{fill:#28497c;}</style></defs><g id="c"><g id="d"><g><polygon class="e" points="35.99 0 35.99 4 51.98 4 51.98 49.99 55.98 49.99 55.98 0 35.99 0"/><polygon class="e" points="4 5.99 0 5.99 0 55.98 19.99 55.98 19.99 51.98 4 51.98 4 5.99"/></g><g><polygon class="e" points="55.98 35.99 51.98 35.99 51.98 51.98 5.99 51.98 5.99 55.98 55.98 55.98 55.98 35.99"/><polygon class="e" points="49.99 4 49.99 0 0 0 0 19.99 4 19.99 4 4 49.99 4"/></g><rect class="e" x="7.98" y="19.98" width="32" height="8"/><path class="e" d="M35.98,23.98v20H11.98V23.98h24m4-4H7.98v28H39.98V19.98h0Z"/></g></g></svg>
