<?xml version="1.0" encoding="UTF-8"?><svg id="b" xmlns="http://www.w3.org/2000/svg" viewBox="0 0 55.98 55.98"><defs><style>.e{fill:#28497c;}</style></defs><g id="c"><g id="d"><g><polygon class="e" points="35.99 0 35.99 4 51.98 4 51.98 19.99 55.98 19.99 55.98 0 35.99 0"/><polygon class="e" points="4 35.99 0 35.99 0 55.98 19.99 55.98 19.99 51.98 4 51.98 4 35.99"/></g><g><polygon class="e" points="55.98 35.99 51.98 35.99 51.98 51.98 35.99 51.98 35.99 55.98 55.98 55.98 55.98 35.99"/><polygon class="e" points="19.99 4 19.99 0 0 0 0 19.99 4 19.99 4 4 19.99 4"/></g><rect class="e" x="9.44" y="-2.04" width="4" height="26.97" transform="translate(-4.74 11.44) rotate(-45)"/><rect class="e" x="42.48" y="31.04" width="4" height="26.87" transform="translate(-18.42 44.48) rotate(-45)"/><rect class="e" x="42.46" y="-2.03" width="4" height="26.92" transform="translate(21.1 -28.09) rotate(45)"/><rect class="e" x="9.43" y="31" width="4" height="26.92" transform="translate(34.79 4.94) rotate(45)"/></g></g></svg>
