<?xml version="1.0" encoding="UTF-8"?><svg id="b" xmlns="http://www.w3.org/2000/svg" viewBox="0 0 55.98 55.98"><defs><style>.e{fill:#28497c;}</style></defs><g id="c"><g id="d"><g><polygon class="e" points="35.99 0 35.99 4 51.98 4 51.98 19.99 55.98 19.99 55.98 0 35.99 0"/><polygon class="e" points="4 35.99 0 35.99 0 55.98 19.99 55.98 19.99 51.98 4 51.98 4 35.99"/></g><g><polygon class="e" points="55.98 35.99 51.98 35.99 51.98 51.98 35.99 51.98 35.99 55.98 55.98 55.98 55.98 35.99"/><polygon class="e" points="19.99 4 19.99 0 0 0 0 19.99 4 19.99 4 4 19.99 4"/></g><rect class="e" x="7.98" y="11.98" width="40" height="8"/><path class="e" d="M43.98,15.98v24H11.98V15.98H43.98m4-4H7.98V43.98H47.98V11.98h0Z"/></g></g></svg>
