<?xml version="1.0" encoding="UTF-8"?><svg id="b" xmlns="http://www.w3.org/2000/svg" viewBox="0 0 52.83 52.83"><defs><style>.e{fill:#28497c;}</style></defs><g id="c"><g id="d"><polygon class="e" points="50.45 22.45 30.45 22.45 30.45 2.45 34.45 2.45 34.45 18.45 50.45 18.45 50.45 22.45"/><polygon class="e" points="22.45 50.45 18.45 50.45 18.45 34.45 2.45 34.45 2.45 30.45 22.45 30.45 22.45 50.45"/><polygon class="e" points="30.45 50.45 30.45 30.45 50.45 30.45 50.45 34.45 34.45 34.45 34.45 50.45 30.45 50.45"/><polygon class="e" points="2.45 22.45 2.45 18.45 18.45 18.45 18.45 2.45 22.45 2.45 22.45 22.45 2.45 22.45"/><rect class="e" x="8.95" y="-2.49" width="4" height="26.87" transform="translate(-4.54 10.95) rotate(-45)"/><rect class="e" x="39.66" y="28.53" width="4" height="26.26" transform="translate(-17.26 41.66) rotate(-45)"/><rect class="e" x="39.9" y="-2.53" width="4" height="26.92" transform="translate(20 -26.42) rotate(45)"/><rect class="e" x="8.93" y="28.44" width="4" height="26.92" transform="translate(32.83 4.54) rotate(45)"/></g></g></svg>
