<svg width="16" height="16" xmlns="http://www.w3.org/2000/svg" viewBox="0 0 54 54"><path d="M46.36 33.87h-.08v.47h.08a.49.49 0 0 0 .27-.06.19.19 0 0 0 .1-.18.2.2 0 0 0-.09-.18.52.52 0 0 0-.28-.05Zm-17.07 5.75h2.78l-1.39-4.16-1.39 4.16z" fill="#28497c"/><path d="M47.46 33.59a1.31 1.31 0 0 0-1-.41 1.27 1.27 0 0 0-.52.11 1.15 1.15 0 0 0-.44.3 1.31 1.31 0 0 0-.31.44 1.46 1.46 0 0 0-.1.52 1.5 1.5 0 0 0 .1.52 1.38 1.38 0 0 0 .31.43 1.12 1.12 0 0 0 .43.3 1.35 1.35 0 0 0 .53.1 1.3 1.3 0 0 0 .52-.1 1.23 1.23 0 0 0 .44-.3 1.52 1.52 0 0 0 .3-.43 1.5 1.5 0 0 0 .1-.52 1.46 1.46 0 0 0-.1-.52 1.43 1.43 0 0 0-.26-.44Zm-.61 1.89L46.6 35a1 1 0 0 0-.16-.25.17.17 0 0 0-.13-.08v.83h-.49v-1.95h.66a1 1 0 0 1 .61.14.46.46 0 0 1 .2.41.44.44 0 0 1-.13.33.64.64 0 0 1-.34.17.59.59 0 0 1 .18.14 1.53 1.53 0 0 1 .15.23l.25.51Z" fill="#28497c"/><path d="M3 3v48h48V3Zm8.42 40.6H9.23V32.94h2.19Zm9.4 0h-7.29V32.94h2.19v8.83h5.1Zm3.58 0h-2.19V32.94h2.19Zm9 0-.71-2.15h-4L28 43.6h-2.28l3.79-10.66h2.42l3.69 10.66Zm7.41.33c-2.71 0-4.28-1.24-4.41-3.52h2.1c.08 1.14.91 1.77 2.4 1.77 1.33 0 2.15-.54 2.15-1.43s-.54-1.27-2-1.55l-1.49-.29c-2.17-.41-3-1.22-3-2.87 0-2.07 1.48-3.27 4-3.27A4.5 4.5 0 0 1 44 34a3 3 0 0 1 .74 2.21h-2c-.08-1.08-.85-1.67-2.24-1.67-1.12 0-1.84.51-1.84 1.32s.45 1.08 2 1.39l1.66.32c2 .38 2.82 1.25 2.82 2.93.01 2.15-1.61 3.43-4.36 3.43Zm7.3-8.73a1.65 1.65 0 0 1-.38.55 1.7 1.7 0 0 1-.55.38 1.72 1.72 0 0 1-1.31 0 1.7 1.7 0 0 1-.55-.38 1.65 1.65 0 0 1-.38-.55 1.85 1.85 0 0 1 0-1.31 1.69 1.69 0 0 1 .38-.56 1.67 1.67 0 0 1 .55-.37 1.72 1.72 0 0 1 1.31 0 1.67 1.67 0 0 1 .55.37 1.69 1.69 0 0 1 .38.56 1.72 1.72 0 0 1 0 1.31Z" fill="#28497c"/></svg>