<svg xmlns="http://www.w3.org/2000/svg" viewBox="0 0 54 54"><path d="M32.5 43h-11a1.5 1.5 0 0 0 0 3h11a1.5 1.5 0 0 0 0-3zm-1 5h-9a1.5 1.5 0 0 0 0 3h9a1.5 1.5 0 0 0 0-3zM27 3a18.54 18.54 0 0 0-2 .11 17 17 0 0 0-6.95 31.37 2 2 0 0 1 .95 1.65v3.34A1.5 1.5 0 0 0 20.5 41h13a1.5 1.5 0 0 0 1.5-1.5v-3.38a2 2 0 0 1 .9-1.67A17 17 0 0 0 27 3zm7.33 28.92a5 5 0 0 0-2.33 4.2V38H22v-1.87a5 5 0 0 0-2.33-4.24 14 14 0 0 1 5.7-25.83A14.84 14.84 0 0 1 27 6a14 14 0 0 1 7.33 25.92z" fill="#28497c"/><path d="M32.39 9.05A12.51 12.51 0 0 0 27.24 8a12.66 12.66 0 0 0-10.37 5.4 1.73 1.73 0 0 0 .42 2.41 1.69 1.69 0 0 0 1 .32 1.73 1.73 0 0 0 1.42-.74 9.21 9.21 0 0 1 7.54-3.93 9.08 9.08 0 0 1 3.74.8A1.73 1.73 0 1 0 32.4 9.1zM17 16.31a1.73 1.73 0 0 0-2 1.27 12.38 12.38 0 0 0-.37 3 12.68 12.68 0 0 0 .28 2.67 1.74 1.74 0 0 0 1.69 1.36 1.55 1.55 0 0 0 .37 0 1.74 1.74 0 0 0 1.33-2.06 8.92 8.92 0 0 1-.3-1.94 9.08 9.08 0 0 1 .27-2.2 1.74 1.74 0 0 0-1.27-2.1z" fill="#28497c"/></svg>