<svg width="16" height="16" xmlns="http://www.w3.org/2000/svg" viewBox="0 0 54 54"><path d="M32.5 43h-11a1.5 1.5 0 0 0 0 3h11a1.5 1.5 0 0 0 0-3Zm-1 5h-9a1.5 1.5 0 0 0 0 3h9a1.5 1.5 0 0 0 0-3ZM25 3.08a17 17 0 0 0-6.95 31.37 2 2 0 0 1 .95 1.68v3.34A1.5 1.5 0 0 0 20.5 41h13a1.5 1.5 0 0 0 1.5-1.5v-3.38a2 2 0 0 1 .9-1.67A17 17 0 0 0 25 3.08Zm-8.68 14.25A11.15 11.15 0 0 0 16 20a10.48 10.48 0 0 0 .25 2.31 1.51 1.51 0 0 1-1.15 1.79h-.32a1.51 1.51 0 0 1-1.47-1.18A14.63 14.63 0 0 1 13 20a14.11 14.11 0 0 1 .41-3.36 1.5 1.5 0 0 1 2.91.72Zm17.14-8.16a1.5 1.5 0 0 1-2 .75A11 11 0 0 0 18 13.66a1.49 1.49 0 0 1-1.23.64 1.5 1.5 0 0 1-1.23-2.36A14 14 0 0 1 32.7 7.18a1.51 1.51 0 0 1 .76 1.99Z" fill="#28497c"/></svg>