<svg xmlns="http://www.w3.org/2000/svg" viewBox="0 0 64 64"><path fill="none" d="M0 0h64v64H0z"/><g fill="#28497c"><path d="M54.47 35.21c-2.81-1.07-5.85-.06-7.6 2.25l-3.51-1.33c.4-2.28.09-4.58-.8-6.62l3.46-2.54a5.882 5.882 0 0 0 3.54 1.17c2.51 0 4.87-1.58 5.79-4.13 1.19-3.28-.44-6.92-3.64-8.13-.71-.27-1.43-.4-2.15-.4-2.51 0-4.87 1.58-5.79 4.13a6.384 6.384 0 0 0-.17 3.81l-3.48 2.55a11.05 11.05 0 0 0-3.81-2.45c-5.09-1.94-10.68.22-13.36 4.84l-2.58-.98c.31-3.43-1.63-6.77-4.93-8.03-.87-.33-1.77-.49-2.65-.49-3.1 0-6.01 1.95-7.15 5.1C4.18 28 6.19 32.5 10.13 34c.87.33 1.77.49 2.65.49 2.36 0 4.61-1.14 6.05-3.07l2.68 1.02c-.63 4.2 1.11 8.41 4.43 10.88l-1.46 3.01c-.67-.14-1.36-.2-2.07-.1-3.38.46-5.75 3.65-5.3 7.11.45 3.46 3.56 5.9 6.94 5.43 3.38-.46 5.75-3.65 5.3-7.11-.15-1.15-.62-2.17-1.27-3.03l1.69-3.48c4.67 1.2 9.55-.87 12.07-4.99l3.62 1.38c-.04 2.82 1.61 5.49 4.34 6.53 3.47 1.32 7.32-.49 8.61-4.04 1.29-3.55-.48-7.5-3.95-8.82Zm-8.06-14.6c.49-1.34 1.75-2.24 3.15-2.24.4 0 .79.07 1.17.22.84.32 1.51.96 1.88 1.79s.41 1.77.1 2.63c-.49 1.34-1.75 2.24-3.15 2.24-.4 0-.79-.07-1.17-.22-1.73-.66-2.62-2.64-1.98-4.42ZM12.79 31.6c-.57 0-1.13-.1-1.67-.31-2.48-.94-3.75-3.78-2.83-6.33.7-1.92 2.51-3.21 4.5-3.21.57 0 1.13.1 1.67.31 2.48.94 3.75 3.78 2.83 6.33-.7 1.92-2.51 3.21-4.5 3.21Z"/><path d="M25.74 17.4c3.19 1.21 6.73-.45 7.92-3.72 1.18-3.27-.44-6.9-3.63-8.11-3.19-1.21-6.73.45-7.92 3.72-1.18 3.27.44 6.9 3.63 8.11Z"/></g></svg>