<?xml version="1.0" encoding="UTF-8"?><svg id="b" xmlns="http://www.w3.org/2000/svg" viewBox="0 0 64 64"><defs><style>.f{fill:none;}.g{fill:#28497c;}</style></defs><g id="c"><rect class="f" width="64" height="64"/></g><g id="d"><g id="e"><path class="g" d="m4,14v36h56V14H4Zm53,33H7v-30h50v30Z"/><g><polygon class="g" points="35.05 36 37.05 36 37.05 34 35.05 34 35.05 22.06 33.05 22.06 33.05 34 31.05 34 31.05 36 33.05 36 33.05 42 29.05 42 29.05 44 33.05 44 33.05 42.06 35.05 42.06 35.05 44 39.05 44 39.05 42 35.05 42 35.05 36"/><rect class="g" x="29.05" y="20" width="4" height="2"/><rect class="g" x="35.05" y="20" width="4" height="2"/><path class="g" d="m20.87,24l-.69-2h-5.18v2h2.14l-5.5,16h-2.64v2h3.75c.2,0,.37-.07.5-.2.14-.13.23-.28.28-.45l1.61-4.83h7.72l1.61,4.83c.06.19.16.34.29.46.13.12.3.18.5.18h3.74v-2h-2.63l-5.5-16Zm-5.08,10.58l2.7-8.12c.18-.5.35-1.13.52-1.88.08.36.16.71.25,1.03.09.32.17.6.25.84l2.7,8.14h-6.42Z"/></g></g></g></svg>