<?xml version="1.0" encoding="UTF-8"?><svg id="b" xmlns="http://www.w3.org/2000/svg" viewBox="0 0 64 64"><defs><style>.f{fill:none;}.g{fill:#28497c;}</style></defs><g id="c"><rect class="f" width="64" height="64"/></g><g id="d"><g id="e"><g><path class="g" d="m4,14v36h56V14H4Zm53,33H7v-30h50v30Z"/><path class="g" d="m18,35.98l-2.48-2.48h10.68c.67,2.59,3.01,4.5,5.8,4.5s5.14-1.91,5.8-4.5h10.68l-2.48,2.48v4.05l8-8-8-8v4.05l2.42,2.42h-10.62c-.67-2.59-3.01-4.5-5.8-4.5s-5.14,1.91-5.8,4.5h-10.62l2.42-2.42v-4.05l-8,8,8,8v-4.05Zm14-6.98c1.65,0,3,1.35,3,3s-1.35,3-3,3-3-1.35-3-3,1.35-3,3-3Z"/></g></g></g></svg>