<?xml version="1.0" encoding="UTF-8" standalone="no"?>
<!DOCTYPE svg PUBLIC "-//W3C//DTD SVG 1.1//EN" "http://www.w3.org/Graphics/SVG/1.1/DTD/svg11.dtd">
<svg width="100%" height="100%" viewBox="0 0 700 700" version="1.1" xmlns="http://www.w3.org/2000/svg" xmlns:xlink="http://www.w3.org/1999/xlink" xml:space="preserve" style="fill-rule:evenodd;clip-rule:evenodd;stroke-linejoin:round;stroke-miterlimit:2;">
    <g>
        <g transform="matrix(1.27148,0,0,1.27148,-95.0191,-6.01074)">
            <path d="M314.72,263.2L211.12,263.2L233.518,240.802C240.237,234.083 240.237,224.001 233.518,217.282C226.799,210.563 216.717,210.563 209.998,217.282L159.6,267.68C152.881,274.399 152.881,284.481 159.6,291.2L209.998,341.598C213.357,344.957 217.279,346.637 221.76,346.637C226.241,346.637 230.158,344.957 233.522,341.598C240.241,334.879 240.241,324.797 233.522,318.078L211.124,295.68L314.724,295.68C323.685,295.68 331.525,288.399 331.525,278.879C331.517,271.039 323.677,263.199 314.716,263.199L314.72,263.2Z" style="fill:rgb(35,66,122);fill-rule:nonzero;"/>
        </g>
        <g transform="matrix(1.27148,0,0,1.27148,-95.0191,-6.01074)">
            <path d="M490.56,217.84C487.201,214.481 482.72,212.801 478.802,212.801C474.322,212.801 470.404,214.481 467.04,217.84C460.321,224.559 460.321,234.641 467.04,241.36L489.438,263.758L385.278,263.762C376.317,263.762 368.477,271.043 368.477,280.563C368.477,289.524 375.758,297.364 385.278,297.364L488.878,297.364L466.48,319.762C459.761,326.481 459.761,336.563 466.48,343.282C473.199,350.001 483.281,350.001 490,343.282L540.398,292.884C547.117,286.165 547.117,276.083 540.398,269.364L490.56,217.84Z" style="fill:rgb(35,66,122);fill-rule:nonzero;"/>
        </g>
        <g transform="matrix(1.27148,0,0,1.27148,-95.0191,-6.01074)">
            <path d="M551.604,138.32L148.4,138.32C113.119,138.32 84.002,167.441 84.002,202.718L84.002,357.278C84.002,392.559 113.123,421.676 148.4,421.676L551.6,421.676C586.881,421.676 615.998,392.555 615.998,357.278L616.002,202.718C616.002,167.441 586.881,138.32 551.604,138.32ZM582.397,357.28C582.397,374.639 568.397,388.081 551.596,388.081L148.396,388.077C131.037,388.077 117.595,374.077 117.595,357.276L117.599,202.716C117.599,185.357 131.599,171.915 148.4,171.915L551.6,171.915C568.959,171.915 582.401,185.915 582.401,202.716L582.397,357.28Z" style="fill:rgb(35,66,122);fill-rule:nonzero;"/>
        </g>
    </g>
</svg>
