<svg width="16" height="16" xmlns="http://www.w3.org/2000/svg" viewBox="0 0 54 54"><g fill="#28497c"><path d="M24.93 49.54V36.7l-2.47 12.84h2.47zM37.76 4.43h-5.94l-1.25 6.48 2.23-2.26 3.25 3.29-7.06 7.15-1.45 7.56h10.22V4.43zm-9 26.57v22h21.93V31Zm14.1 11 4.45 4.47-3.13 3.13-4.45-4.47-4.45 4.47-3.14-3.15L36.59 42l-4.44-4.47L33.7 36l1.58-1.58 4.45 4.47 4.45-4.47 3.13 3.15L42.86 42ZM3 27.51v22.03h15.82l.65-3.4H16.1v-5.79h-4.27v5.79H7.76v-7.4H6.55l7.42-7.83 7.01 7.4 2.08-10.8H3z"/><path d="m20.18 42.47.71-3.73h-.71v3.73zM15.86.97v22.22h8.03l.72-3.76-7.04-7.14L20.81 9l4.11 4.18 1.12-1.13L28.17.97H15.86z"/></g></svg>