<svg xmlns="http://www.w3.org/2000/svg" viewBox="0 0 64 64"><path fill="none" d="M0 0h64v64H0z"/><path d="M60 14c0-4.42-3.58-8-8-8s-8 3.58-8 8c0 3.9 2.8 7.15 6.5 7.85v7.49l-9.52 8.72c-1.89-2.13-4.51-3.59-7.48-3.96V21.85c3.7-.7 6.5-3.95 6.5-7.85 0-4.42-3.58-8-8-8s-8 3.58-8 8c0 3.91 2.8 7.15 6.5 7.85V34.1c-2.97.37-5.6 1.83-7.48 3.96l-9.52-8.72v-7.49c3.7-.7 6.5-3.95 6.5-7.85 0-4.42-3.58-8-8-8s-8 3.58-8 8c0 3.91 2.8 7.15 6.5 7.85v8.81l10.81 9.91C20.48 42.2 20 44.04 20 46c0 6.63 5.37 12 12 12s12-5.37 12-12c0-1.96-.48-3.8-1.31-5.43l10.81-9.91v-8.8c3.7-.7 6.5-3.95 6.5-7.85ZM7 14c0-2.76 2.24-5 5-5s5 2.24 5 5-2.24 5-5 5-5-2.24-5-5Zm20 0c0-2.76 2.24-5 5-5s5 2.24 5 5-2.24 5-5 5-5-2.24-5-5Zm5 39c-3.86 0-7-3.14-7-7s3.14-7 7-7 7 3.14 7 7-3.14 7-7 7Zm20-34c-2.76 0-5-2.24-5-5s2.24-5 5-5 5 2.24 5 5-2.24 5-5 5Z" fill="#28497c"/></svg>