<svg viewBox="0 0 16 16" xmlns="http://www.w3.org/2000/svg" xml:space="preserve" fill-rule="evenodd" clip-rule="evenodd" stroke-linejoin="round" stroke-miterlimit="2"><path d="M14.709 1.196v-.009H1.226v13.558h13.548V1.196h-.065zm-1.064 12.42H2.355V2.326h11.29v11.29z" fill="#28497c" fill-rule="nonzero"/><path d="M7.9 12.487h2.372c.693 0 1.027-.432 1.027-1.075 0-.644-.483-1.02-1.048-1.02H8.017c-1.048 0-1.37-.642-1.37-1.288V8.46h3.604c.726 0 1.169-.36 1.169-1.087 0-.606-.516-1.007-1.241-1.007H6.627s-.02-.921-.02-1.645c0-.624-.346-1.182-1.035-1.182-.644 0-.96.489-.96 1.275v4.615c0 2.265 1.259 3.059 3.289 3.059z" fill="#28497c" fill-rule="nonzero"/></svg>