<svg xmlns="http://www.w3.org/2000/svg" viewBox="0 0 16 16" shape-rendering="geometricPrecision" fill="#00962d"><path d="M12.971 1.607c-1.315 0-2.454.74-3.029 1.825a3.425 3.425 0 0 0 6.058 0 3.43 3.43 0 0 0-3.029-1.825z" fill="#cb1800"/><g mask="url(#a)"><path d="m8.182 3.179-.815-1.923h-3.78L2.77 3.179H1.649l.001.949 13.327-.009.018 9.283.933-.978V3.179z"/><path d="M.072 4.756V14h14.279V4.756H.072zm5.222 8.236-.082-.852.736.293-.654.559zm1.271-1.08-1.443-.579L6.681 7.44l1.444.579-1.56 3.893zm1.952-4.87-.233.58-1.444-.58.232-.578a.778.778 0 0 1 1.445.578z"/></g></svg>